<svg width="301" height="176" viewBox="0 0 301 176" fill="none" xmlns="http://www.w3.org/2000/svg">
<g clip-path="url(#clip0_202_4470)">
<mask id="path-1-outside-1_202_4470" maskUnits="userSpaceOnUse" x="-1.17188" y="-0.733154" width="304" height="178" fill="black">
<rect fill="white" x="-1.17188" y="-0.733154" width="304" height="178"/>
<path d="M277.763 54.7744L206.878 13.8463C175.515 -4.26278 124.662 -4.25647 93.5072 13.8463L23.0825 54.7744C7.55865 63.7974 -0.190656 75.6389 -0.171739 87.493C-0.171739 87.4552 -0.171739 87.4173 -0.171739 87.3795V88.4073C-0.209572 100.375 7.67214 112.361 23.4545 121.473L94.3395 162.401C95.279 162.943 96.2437 163.473 97.221 163.983C97.5489 164.154 97.8831 164.311 98.211 164.482C98.8667 164.816 99.5288 165.15 100.197 165.465C100.594 165.654 101.004 165.837 101.408 166.02C102.026 166.304 102.644 166.581 103.268 166.852C103.703 167.042 104.151 167.218 104.592 167.401C105.014 167.571 105.424 167.754 105.853 167.924C106.08 168.013 106.313 168.101 106.547 168.189C106.824 168.296 107.102 168.404 107.385 168.504C108.218 168.82 109.063 169.122 109.907 169.412C110.09 169.475 110.267 169.539 110.443 169.602C111.452 169.942 112.474 170.27 113.508 170.585C113.766 170.667 114.031 170.743 114.296 170.818C114.725 170.945 115.147 171.077 115.576 171.197C115.828 171.266 116.08 171.329 116.333 171.399C117.133 171.619 117.947 171.834 118.754 172.042C119.252 172.168 119.75 172.294 120.248 172.414C121.131 172.628 122.02 172.824 122.909 173.013C123.25 173.088 123.59 173.17 123.931 173.246C124.031 173.265 124.132 173.284 124.227 173.303C125.034 173.467 125.847 173.618 126.661 173.763C127.127 173.851 127.594 173.946 128.061 174.022C129.069 174.198 130.085 174.35 131.106 174.501C131.365 174.539 131.623 174.589 131.888 174.627C131.907 174.627 131.92 174.627 131.938 174.633C133.212 174.816 134.492 174.974 135.772 175.119C135.854 175.125 135.942 175.131 136.024 175.144C137.222 175.276 138.427 175.396 139.637 175.497C139.656 175.497 139.675 175.497 139.7 175.497C140.11 175.529 140.526 175.554 140.942 175.579C141.806 175.642 142.67 175.705 143.534 175.756C144.051 175.781 144.574 175.8 145.091 175.819C145.873 175.85 146.655 175.888 147.437 175.913C147.5 175.913 147.557 175.913 147.62 175.92C148.042 175.932 148.465 175.92 148.887 175.932C149.732 175.945 150.583 175.957 151.428 175.957C151.971 175.957 152.513 175.945 153.055 175.932C153.843 175.92 154.631 175.913 155.42 175.888C155.565 175.888 155.71 175.888 155.855 175.882C156.756 175.85 157.658 175.806 158.553 175.762C158.749 175.749 158.944 175.737 159.14 175.73C160.287 175.661 161.441 175.585 162.583 175.491C162.614 175.491 162.652 175.484 162.683 175.484C163.377 175.428 164.071 175.365 164.764 175.295C165.143 175.257 165.527 175.213 165.905 175.169C166.189 175.138 166.467 175.106 166.75 175.075C167.86 174.949 168.97 174.81 170.073 174.652C170.225 174.633 170.376 174.608 170.534 174.583C171.511 174.444 172.476 174.293 173.447 174.129C173.73 174.078 174.02 174.034 174.304 173.984C174.538 173.946 174.777 173.908 175.01 173.864C175.408 173.795 175.792 173.706 176.183 173.631C176.883 173.498 177.583 173.36 178.283 173.215C178.85 173.095 179.418 172.969 179.979 172.843C180.666 172.691 181.347 172.534 182.028 172.37C182.589 172.231 183.151 172.092 183.712 171.947C184.38 171.777 185.049 171.6 185.711 171.411C186.266 171.26 186.82 171.096 187.369 170.938C188.025 170.743 188.674 170.547 189.324 170.346C189.614 170.257 189.904 170.175 190.194 170.081C190.578 169.955 190.957 169.822 191.341 169.696C191.587 169.614 191.833 169.532 192.079 169.45C193.075 169.103 194.065 168.75 195.043 168.378C195.213 168.315 195.383 168.246 195.553 168.177C196.386 167.855 197.212 167.521 198.025 167.18C198.271 167.079 198.517 166.972 198.763 166.871C199.715 166.461 200.654 166.045 201.581 165.604C201.682 165.554 201.783 165.503 201.884 165.453C202.716 165.055 203.536 164.646 204.349 164.223C204.589 164.103 204.822 163.977 205.056 163.851C205.951 163.378 206.84 162.893 207.704 162.388L278.128 121.46C278.456 121.271 278.778 121.075 279.1 120.886C279.175 120.842 279.245 120.792 279.32 120.748C279.572 120.596 279.818 120.445 280.058 120.294C280.279 120.155 280.506 120.016 280.726 119.877C280.966 119.726 281.205 119.568 281.439 119.411C281.653 119.266 281.874 119.127 282.088 118.982C282.322 118.824 282.549 118.667 282.782 118.509C282.99 118.364 283.198 118.219 283.406 118.074C283.633 117.91 283.854 117.752 284.081 117.589C284.283 117.444 284.478 117.299 284.673 117.153C284.894 116.99 285.109 116.826 285.323 116.655C285.512 116.51 285.708 116.365 285.89 116.214C286.105 116.044 286.313 115.873 286.521 115.703C286.704 115.558 286.887 115.413 287.063 115.262C287.271 115.092 287.467 114.915 287.668 114.745C287.845 114.594 288.022 114.448 288.192 114.297C288.387 114.121 288.583 113.944 288.778 113.774C288.923 113.648 289.068 113.515 289.207 113.389C289.226 113.37 289.245 113.351 289.264 113.332C289.68 112.948 290.09 112.557 290.487 112.166C290.588 112.065 290.682 111.964 290.783 111.863C291.086 111.561 291.376 111.258 291.666 110.949C291.78 110.823 291.899 110.703 292.013 110.577C292.316 110.249 292.612 109.921 292.896 109.587C292.965 109.511 293.034 109.429 293.097 109.354C293.444 108.95 293.778 108.54 294.1 108.13C294.125 108.099 294.15 108.067 294.176 108.036C294.251 107.935 294.327 107.834 294.403 107.733C294.585 107.494 294.768 107.26 294.945 107.021C295.052 106.876 295.159 106.724 295.267 106.579C295.43 106.352 295.588 106.119 295.746 105.892C295.847 105.741 295.954 105.589 296.055 105.438C296.206 105.205 296.357 104.978 296.502 104.745C296.597 104.593 296.691 104.448 296.78 104.297C296.931 104.051 297.076 103.805 297.221 103.553C297.278 103.452 297.347 103.345 297.404 103.244C297.423 103.212 297.442 103.181 297.454 103.143C297.581 102.922 297.694 102.702 297.814 102.481C297.89 102.336 297.971 102.191 298.047 102.046C298.173 101.8 298.287 101.56 298.407 101.314C298.47 101.188 298.533 101.062 298.589 100.936C298.753 100.589 298.905 100.242 299.056 99.8957C299.069 99.8704 299.075 99.8515 299.088 99.8263C299.245 99.4543 299.39 99.0823 299.535 98.7103C299.535 98.6977 299.542 98.6913 299.548 98.6787C299.598 98.5463 299.642 98.4139 299.687 98.2815C299.769 98.0545 299.85 97.8275 299.926 97.6005C299.977 97.4429 300.021 97.2916 300.071 97.1339C300.141 96.9195 300.21 96.7052 300.267 96.4908C300.311 96.3268 300.355 96.1629 300.399 95.999C300.456 95.7909 300.513 95.5828 300.563 95.3747C300.601 95.2108 300.639 95.0405 300.676 94.8766C300.721 94.6685 300.771 94.4668 300.815 94.2587C300.822 94.2271 300.828 94.1893 300.84 94.1578C300.866 94.0254 300.885 93.893 300.91 93.7606C300.948 93.5525 300.985 93.3444 301.023 93.1363C301.048 92.9661 301.074 92.7958 301.099 92.6256C301.13 92.4175 301.156 92.2157 301.181 92.014C301.2 91.8374 301.219 91.6672 301.238 91.4906C301.257 91.2888 301.276 91.0871 301.294 90.8853C301.307 90.7087 301.32 90.5322 301.326 90.3556C301.339 90.1539 301.351 89.9521 301.357 89.7503C301.357 89.6873 301.364 89.6179 301.37 89.5549C301.376 89.3216 301.383 89.082 301.383 88.8487V87.8209C301.383 87.9722 301.383 88.1172 301.376 88.2686C301.61 76.156 293.734 63.9803 277.763 54.7618V54.7744ZM299.05 98.9247C299.006 99.0192 298.961 99.1201 298.917 99.2147C298.987 99.0571 299.056 98.9057 299.119 98.7481C299.106 98.7733 299.1 98.7985 299.088 98.8238C299.075 98.8553 299.056 98.8931 299.043 98.9247H299.05ZM298.419 100.312L298.4 100.35C298.476 100.186 298.558 100.028 298.634 99.8642C298.621 99.8894 298.615 99.9146 298.602 99.9335C298.545 100.06 298.482 100.179 298.419 100.306V100.312ZM292.908 108.578C292.908 108.578 292.883 108.603 292.87 108.616C292.959 108.515 293.053 108.414 293.135 108.307C293.123 108.32 293.116 108.332 293.104 108.345C293.041 108.421 292.971 108.496 292.902 108.578H292.908ZM280.064 119.272C280.291 119.133 280.518 118.988 280.745 118.843H280.733C280.512 118.988 280.285 119.133 280.064 119.272V119.272ZM281.514 118.345C281.716 118.213 281.918 118.08 282.113 117.948H282.101C281.905 118.087 281.71 118.213 281.514 118.345V118.345ZM282.87 117.431C283.059 117.298 283.248 117.172 283.431 117.04L283.412 117.053C283.236 117.179 283.053 117.305 282.87 117.431ZM284.15 116.523C284.333 116.391 284.522 116.252 284.705 116.119L284.686 116.132C284.51 116.264 284.333 116.391 284.15 116.523ZM285.386 115.596C285.569 115.457 285.752 115.319 285.935 115.174L285.909 115.193C285.739 115.325 285.563 115.464 285.386 115.596V115.596ZM286.578 114.657C286.754 114.512 286.937 114.367 287.107 114.221L287.082 114.24C286.918 114.379 286.748 114.512 286.578 114.65V114.657ZM287.732 113.692C287.902 113.547 288.072 113.402 288.236 113.257C288.223 113.263 288.217 113.276 288.211 113.282C288.053 113.421 287.896 113.553 287.732 113.692ZM288.835 112.721C288.993 112.576 289.15 112.437 289.302 112.292L289.276 112.317C289.131 112.45 288.98 112.588 288.829 112.721H288.835ZM95.2349 160.85L24.3499 119.922C9.05302 111.088 1.30372 99.5174 1.10195 87.9155C1.10195 87.7831 1.10194 87.6506 1.10825 87.5182C1.11456 87.3165 1.12717 87.121 1.13978 86.9192C1.15239 86.749 1.1587 86.5724 1.17131 86.4022C1.18392 86.2004 1.20914 85.9986 1.22805 85.8032C1.24697 85.6329 1.25958 85.4627 1.2848 85.2924C1.31002 85.0907 1.33525 84.8889 1.36677 84.6808C1.39199 84.5106 1.41091 84.3466 1.44243 84.1764C1.47396 83.9683 1.5118 83.7665 1.54963 83.5648C1.58116 83.4008 1.60638 83.2369 1.64421 83.0666C1.68835 82.8649 1.73249 82.6631 1.77663 82.4613C1.81446 82.2974 1.85229 82.1334 1.89012 81.9632C1.94056 81.7551 1.99731 81.5534 2.05406 81.3453C2.09819 81.1876 2.13603 81.0237 2.18647 80.8661C2.24953 80.6517 2.31888 80.4436 2.38194 80.2292C2.43238 80.0779 2.47652 79.9266 2.52696 79.7689C2.60262 79.5482 2.6846 79.3276 2.76026 79.1006C2.81071 78.9618 2.86114 78.8168 2.91159 78.6781C3.05031 78.3124 3.19533 77.9467 3.34666 77.581C3.35927 77.5494 3.37188 77.5179 3.38449 77.4927C3.52951 77.1585 3.67454 76.8243 3.83218 76.4901C3.88892 76.364 3.95197 76.2379 4.01503 76.1181C4.12852 75.8785 4.24202 75.6389 4.36813 75.4056C4.44379 75.2606 4.52577 75.1156 4.60143 74.9642C4.71493 74.7498 4.82843 74.5355 4.94823 74.3211C5.02389 74.1887 5.10586 74.05 5.18152 73.9175C5.32024 73.6716 5.46526 73.432 5.61029 73.1861C5.69856 73.0411 5.79314 72.8898 5.88772 72.7447C6.03275 72.5177 6.17777 72.2908 6.3291 72.0638C6.42998 71.9124 6.53088 71.7611 6.63176 71.6161C6.78309 71.3891 6.94703 71.1684 7.10467 70.9414C7.21186 70.7964 7.31274 70.6514 7.41993 70.5063C7.59018 70.273 7.76673 70.0397 7.94958 69.8064C8.05047 69.674 8.15135 69.5479 8.25224 69.4155C8.57381 69.012 8.9017 68.6147 9.24219 68.2112C9.30524 68.1355 9.37459 68.0598 9.44395 67.9842C9.72769 67.6563 10.0177 67.3347 10.3141 67.0132C10.4276 66.8933 10.5411 66.7672 10.6546 66.6474C10.9383 66.3448 11.2284 66.0484 11.5247 65.7521C11.6256 65.6512 11.7202 65.5566 11.8148 65.4557C12.2057 65.0711 12.6029 64.6865 13.0191 64.3018C13.1767 64.1568 13.3344 64.0181 13.492 63.8731C13.6875 63.6965 13.8766 63.5263 14.0721 63.3497C14.2423 63.2047 14.4126 63.0597 14.5828 62.9147C14.7846 62.7444 14.9801 62.5742 15.1818 62.4039C15.3584 62.2589 15.5349 62.1139 15.7178 61.9689C15.9259 61.7986 16.1276 61.6347 16.342 61.4707C16.5249 61.3257 16.714 61.1807 16.9032 61.0357C17.1176 60.8717 17.3257 60.7078 17.5464 60.5501C17.7418 60.4051 17.9373 60.2664 18.1328 60.1214C18.3534 59.9637 18.5741 59.7998 18.7948 59.6422C18.9966 59.4972 19.2047 59.3584 19.4064 59.2197C19.6334 59.0621 19.8604 58.9044 20.0874 58.7531C20.2955 58.6144 20.5099 58.4757 20.7243 58.337C20.9576 58.1856 21.1909 58.028 21.4305 57.8767C21.6449 57.738 21.8655 57.5992 22.0862 57.4668C22.3258 57.3155 22.5717 57.1642 22.8177 57.0191C23.2023 56.7858 23.5932 56.5525 23.9905 56.3192L94.4151 15.3911C95.2664 14.8929 96.1428 14.42 97.0256 13.9534C97.2589 13.8336 97.4922 13.7075 97.7255 13.5877C98.5199 13.1716 99.327 12.768 100.147 12.3771C100.248 12.3267 100.349 12.2762 100.449 12.2258C101.357 11.797 102.284 11.3809 103.224 10.9773C103.463 10.8764 103.709 10.7755 103.949 10.6683C104.75 10.3279 105.563 9.99998 106.383 9.68471C106.553 9.62165 106.717 9.55229 106.887 9.48924C107.846 9.12353 108.823 8.77043 109.807 8.42994C110.046 8.34797 110.286 8.266 110.532 8.18403C111.187 7.96334 111.856 7.74896 112.518 7.54088C113.155 7.33911 113.798 7.14364 114.441 6.95448C114.983 6.79685 115.526 6.63921 116.074 6.48788C116.724 6.30503 117.379 6.13478 118.035 5.96454C118.59 5.81951 119.139 5.68079 119.693 5.54838C120.362 5.38444 121.03 5.23311 121.705 5.08178C122.26 4.95568 122.815 4.83587 123.376 4.71607C124.057 4.57105 124.75 4.43864 125.438 4.31253C126.056 4.19273 126.673 4.07293 127.291 3.96574C127.569 3.91529 127.853 3.87115 128.13 3.82071C129.088 3.66308 130.047 3.51175 131.012 3.37303C131.157 3.35411 131.302 3.32889 131.447 3.30998C132.531 3.15865 133.628 3.01993 134.719 2.89382C134.997 2.86229 135.274 2.83077 135.551 2.80554C136.22 2.72988 136.894 2.67313 137.569 2.61008C138.414 2.53442 139.265 2.45875 140.116 2.39569C140.652 2.35786 141.182 2.32003 141.718 2.2822C142.601 2.22545 143.49 2.18762 144.379 2.14979C144.877 2.13087 145.375 2.10565 145.88 2.08673C146.649 2.06151 147.424 2.05521 148.194 2.0426C148.73 2.03629 149.266 2.02368 149.802 2.01737C150.634 2.01737 151.46 2.02998 152.292 2.0426C152.771 2.0489 153.251 2.0489 153.73 2.06151C154.499 2.08043 155.268 2.11826 156.031 2.14979C156.542 2.17501 157.059 2.18762 157.57 2.21284C158.408 2.25698 159.247 2.32003 160.086 2.38309C160.521 2.41461 160.962 2.43983 161.397 2.47136C162.519 2.56594 163.642 2.67944 164.758 2.79924C164.903 2.81185 165.054 2.82446 165.199 2.84338C166.46 2.98209 167.721 3.14603 168.97 3.32259C169.241 3.36042 169.512 3.41086 169.783 3.44869C170.786 3.60002 171.788 3.75135 172.785 3.92159C173.245 4.00356 173.699 4.09184 174.153 4.17381C174.954 4.31883 175.761 4.47016 176.555 4.6278C176.99 4.71607 177.419 4.81696 177.848 4.91154C178.724 5.1007 179.607 5.29617 180.471 5.50424C180.963 5.62405 181.448 5.75015 181.94 5.86996C182.741 6.07173 183.535 6.27981 184.33 6.50049C184.998 6.68965 185.673 6.87251 186.335 7.07428C186.593 7.14994 186.852 7.22561 187.104 7.30127C188.119 7.61024 189.122 7.93181 190.118 8.2723C190.301 8.33536 190.478 8.39841 190.654 8.46146C191.486 8.75151 192.312 9.04786 193.132 9.35683C193.409 9.45771 193.681 9.5649 193.958 9.6721C194.601 9.92431 195.238 10.1828 195.875 10.4414C196.31 10.6179 196.745 10.7945 197.18 10.9836C197.798 11.2484 198.41 11.5259 199.015 11.8033C199.412 11.9862 199.816 12.1627 200.207 12.3456C200.869 12.6608 201.518 12.9887 202.168 13.3166C202.489 13.4805 202.823 13.6382 203.139 13.8021C204.097 14.3065 205.049 14.8236 205.976 15.3595L276.861 56.2877C292.177 65.1278 299.926 76.7234 300.109 88.3379C299.844 99.7885 292.227 111.176 277.227 119.89L206.802 160.818C176.139 178.637 126.081 178.637 95.2159 160.818L95.2349 160.85ZM9.59529 66.7925C9.734 66.6348 9.87272 66.4709 10.0177 66.3133C9.87272 66.4709 9.734 66.6348 9.59529 66.7925ZM8.25224 68.4003C8.25224 68.4003 8.23332 68.4256 8.22071 68.4382C8.25224 68.4003 8.28377 68.3562 8.3153 68.3184C8.29007 68.3436 8.27116 68.3751 8.24594 68.4066L8.25224 68.4003ZM8.75037 67.7887C8.88278 67.6311 9.00888 67.4671 9.1476 67.3095C9.01519 67.4671 8.88278 67.6311 8.75037 67.7887ZM7.94958 68.7913L7.93697 68.8102L7.95588 68.785L7.94958 68.7913ZM7.41993 69.4975C7.41993 69.4975 7.40102 69.5227 7.3884 69.5416C7.43885 69.4723 7.48298 69.4092 7.53343 69.3398C7.49559 69.3903 7.45777 69.447 7.41993 69.4975V69.4975ZM6.63176 70.6135C6.63176 70.6135 6.61284 70.6387 6.60654 70.6514C6.66959 70.5568 6.73264 70.4622 6.802 70.3613C6.74525 70.4433 6.68851 70.5253 6.63806 70.6072L6.63176 70.6135ZM5.88772 71.7485C5.88772 71.7485 5.87511 71.7737 5.86881 71.78C5.95078 71.6539 6.02645 71.5278 6.10842 71.3954C6.03275 71.5089 5.96339 71.6287 5.88772 71.7422V71.7485ZM5.18152 72.9213C5.27611 72.7637 5.36438 72.606 5.46526 72.4421C5.37068 72.5997 5.28241 72.7637 5.18783 72.9213H5.18152ZM4.60143 73.968V73.9806C4.6834 73.8166 4.76537 73.6527 4.85995 73.4888C4.77168 73.6464 4.68971 73.8103 4.60143 73.968ZM4.04656 75.0525C4.12853 74.8823 4.2105 74.712 4.29878 74.5418C4.2105 74.712 4.12853 74.8823 4.04656 75.0525ZM3.55474 76.1181C3.6304 75.9479 3.70606 75.7713 3.78803 75.6011C3.70606 75.7713 3.63671 75.9479 3.55474 76.1181ZM3.10705 77.19C3.17641 77.0135 3.24577 76.8369 3.31513 76.6667C3.23947 76.8432 3.17641 77.0135 3.10705 77.19ZM2.76026 78.1043C2.74135 78.1548 2.72242 78.2115 2.70351 78.2619C2.76026 78.098 2.81701 77.9341 2.88007 77.7638C2.83593 77.8773 2.8044 77.9908 2.76026 78.098V78.1043ZM2.38194 79.233C2.36933 79.2708 2.35671 79.3023 2.35041 79.3402C2.40085 79.1825 2.44499 79.0186 2.50174 78.861C2.46391 78.9871 2.42607 79.1069 2.38824 79.233H2.38194ZM2.05406 80.349C2.05406 80.349 2.04145 80.3995 2.03514 80.4184C2.07928 80.2607 2.11711 80.1094 2.16125 79.9581C2.12341 80.0905 2.09189 80.2166 2.06037 80.349H2.05406ZM1.77663 81.4651L1.76401 81.5092C1.79554 81.3579 1.82707 81.2065 1.8649 81.0615C1.83338 81.1939 1.80815 81.3327 1.77663 81.4651V81.4651ZM1.64421 82.0704C1.64421 82.0704 1.6316 82.1334 1.6253 82.165C1.6316 82.1334 1.6379 82.0956 1.65051 82.0641V82.0767L1.64421 82.0704ZM1.54963 82.5685V82.6C1.55594 82.5307 1.56854 82.4613 1.58115 82.392C1.56854 82.4487 1.56224 82.5055 1.54963 82.5622V82.5685ZM1.44243 83.1801C1.44243 83.2117 1.42982 83.2432 1.42352 83.2747C1.42982 83.2306 1.43613 83.1864 1.44243 83.1486V83.1801V83.1801ZM1.2848 84.2962C1.2848 84.3277 1.2722 84.3592 1.2722 84.3971C1.2722 84.3466 1.28481 84.2962 1.29111 84.2457C1.29111 84.2647 1.29111 84.2836 1.29111 84.2962H1.2848ZM1.17761 85.4059C1.17761 85.4375 1.17131 85.4753 1.16501 85.5068C1.16501 85.4501 1.17761 85.387 1.17761 85.3303C1.17761 85.3555 1.17761 85.3807 1.17761 85.4059ZM1.11456 86.522C1.11456 86.5598 1.11456 86.5913 1.11456 86.6292C1.11456 86.5598 1.11456 86.4968 1.12086 86.4274C1.12086 86.4589 1.12086 86.4905 1.12086 86.522H1.11456ZM22.0862 56.4643C22.2502 56.3634 22.4141 56.2562 22.578 56.1553C22.4141 56.2562 22.2502 56.3634 22.0862 56.4643ZM20.7243 57.3344C20.8882 57.2272 21.0521 57.12 21.2161 57.0128C21.0521 57.12 20.8882 57.2272 20.7243 57.3344ZM19.4064 58.2235C19.5704 58.11 19.728 57.9965 19.8983 57.883C19.7343 57.9965 19.5767 58.11 19.4127 58.2235H19.4064ZM18.1328 59.1251C18.2967 59.0116 18.4543 58.8918 18.6246 58.772C18.4606 58.8918 18.303 59.0116 18.1391 59.1251H18.1328ZM16.9032 60.0394H16.8969C17.0608 59.9196 17.2185 59.7935 17.3887 59.6674C17.2248 59.7872 17.0672 59.9133 16.9095 60.0394H16.9032ZM15.7178 60.9726H15.7115C15.8754 60.8465 16.0331 60.7141 16.197 60.5817C16.0331 60.7078 15.8754 60.8402 15.7178 60.9726V60.9726ZM14.5828 61.9184H14.5702C14.7342 61.7923 14.8918 61.6536 15.0557 61.5149C14.8981 61.6473 14.7405 61.786 14.5828 61.9184ZM13.492 62.8768H13.4794C13.637 62.7444 13.7947 62.5931 13.9586 62.4544C13.801 62.5931 13.6433 62.7381 13.4857 62.8768H13.492ZM291.849 109.783C291.918 109.707 291.988 109.637 292.051 109.562L292.032 109.587C291.969 109.65 291.912 109.719 291.849 109.783V109.783ZM295.216 105.69C295.248 105.646 295.279 105.608 295.304 105.564L295.285 105.596C295.26 105.627 295.241 105.659 295.216 105.69ZM295.941 104.65C295.998 104.568 296.048 104.486 296.105 104.404C296.092 104.417 296.086 104.436 296.074 104.448C296.029 104.518 295.985 104.581 295.941 104.65ZM296.622 103.597C296.691 103.483 296.767 103.37 296.837 103.256C296.824 103.275 296.818 103.294 296.805 103.307C296.748 103.401 296.685 103.496 296.622 103.597V103.597ZM297.259 102.531C297.341 102.386 297.429 102.241 297.511 102.096C297.499 102.115 297.486 102.14 297.48 102.159C297.41 102.285 297.335 102.412 297.265 102.538L297.259 102.531ZM297.852 101.466C297.934 101.308 298.022 101.15 298.104 100.993C298.091 101.018 298.085 101.037 298.072 101.062C298.003 101.201 297.927 101.333 297.858 101.472L297.852 101.466ZM299.415 98.0734C299.466 97.941 299.523 97.8086 299.573 97.6762C299.573 97.6951 299.56 97.7077 299.554 97.7266C299.51 97.8464 299.46 97.9599 299.415 98.0734ZM299.813 96.9889C299.863 96.8502 299.914 96.7178 299.958 96.579C299.958 96.5917 299.951 96.6043 299.945 96.6169C299.901 96.743 299.857 96.8691 299.813 96.9889ZM300.191 95.835C300.229 95.7152 300.267 95.6017 300.298 95.4882V95.5071C300.26 95.6143 300.223 95.7278 300.191 95.835ZM300.544 94.5613C300.557 94.5046 300.576 94.4415 300.588 94.3848C300.576 94.4478 300.557 94.5046 300.544 94.5613ZM301.257 90.5259C301.257 90.5259 301.257 90.4755 301.263 90.4502V90.5259H301.257ZM301.339 89.4161V89.2963C301.339 89.2963 301.339 89.3405 301.339 89.3657V89.4161V89.4161ZM300.128 87.7389C300.128 87.5498 300.128 87.3669 300.115 87.1777C300.115 87.3669 300.128 87.5498 300.128 87.7389ZM289.585 64.8882C289.756 65.0585 289.932 65.235 290.102 65.4053C289.932 65.2287 289.762 65.0585 289.585 64.8882ZM290.55 65.8845C290.714 66.0547 290.878 66.2313 291.036 66.4015C290.878 66.2313 290.714 66.0547 290.55 65.8845ZM291.458 66.8807C291.609 67.0573 291.767 67.2275 291.918 67.4041C291.767 67.2275 291.609 67.0573 291.458 66.8807ZM292.322 67.8896C292.467 68.0661 292.618 68.2427 292.757 68.4193C292.618 68.2427 292.467 68.0661 292.322 67.8896ZM293.142 68.9111C293.28 69.0876 293.419 69.2642 293.551 69.4407C293.419 69.2642 293.28 69.0876 293.142 68.9111ZM293.917 69.9388C294.043 70.1154 294.176 70.292 294.302 70.4685C294.176 70.292 294.043 70.1154 293.917 69.9388ZM294.642 70.9729C294.762 71.1495 294.888 71.3323 295.008 71.5089C294.888 71.326 294.768 71.1495 294.642 70.9729ZM295.323 72.0196C295.437 72.2025 295.55 72.379 295.664 72.5619C295.557 72.379 295.437 72.2025 295.323 72.0196ZM295.96 73.0726C296.067 73.2555 296.174 73.432 296.275 73.6149C296.174 73.432 296.067 73.2555 295.96 73.0726ZM296.553 74.1319C296.647 74.3148 296.748 74.4976 296.843 74.6742C296.748 74.4913 296.647 74.3085 296.553 74.1319ZM297.101 75.1975C297.19 75.3804 297.284 75.5632 297.366 75.7398C297.278 75.5569 297.19 75.3741 297.101 75.1975ZM297.599 76.2631C297.681 76.446 297.763 76.6288 297.845 76.8117C297.77 76.6288 297.681 76.446 297.599 76.2631ZM298.053 77.3414C298.129 77.5242 298.205 77.7071 298.274 77.8962C298.205 77.7134 298.129 77.5305 298.053 77.3414ZM298.463 78.4259C298.526 78.6087 298.596 78.7916 298.659 78.9808C298.596 78.7979 298.526 78.6087 298.463 78.4259ZM298.829 79.5104C298.886 79.6933 298.949 79.8824 298.999 80.0653C298.943 79.8824 298.886 79.6933 298.829 79.5104ZM299.151 80.6012C299.201 80.7841 299.251 80.9733 299.302 81.1561C299.258 80.9733 299.201 80.7841 299.151 80.6012ZM299.422 81.6921C299.466 81.8812 299.51 82.0641 299.548 82.2532C299.51 82.0641 299.466 81.8812 299.422 81.6921ZM299.649 82.7892C299.687 82.9784 299.718 83.1612 299.75 83.3504C299.718 83.1612 299.68 82.9784 299.649 82.7892ZM299.832 83.8926C299.857 84.0755 299.888 84.2647 299.907 84.4475C299.882 84.2647 299.857 84.0755 299.832 83.8926ZM299.97 84.9898C299.989 85.1726 300.008 85.3618 300.027 85.5446C300.014 85.3618 299.989 85.1726 299.97 84.9898ZM300.065 86.0869C300.077 86.2761 300.09 86.4589 300.096 86.6481C300.09 86.4589 300.077 86.2761 300.065 86.0869ZM289.119 64.4406C288.942 64.264 288.759 64.0938 288.576 63.9235C288.759 64.0938 288.942 64.2703 289.119 64.4406ZM278.299 56.1679C277.832 55.8842 277.353 55.6004 276.867 55.323C277.353 55.6004 277.826 55.8842 278.299 56.1679ZM288.097 63.4695C287.914 63.2993 287.719 63.129 287.53 62.9588C287.719 63.129 287.908 63.2993 288.097 63.4695ZM287.032 62.5111C286.836 62.3409 286.634 62.1706 286.433 62.0004C286.634 62.1706 286.836 62.3409 287.032 62.5111ZM285.922 61.5653C285.714 61.3951 285.499 61.2185 285.285 61.0483C285.499 61.2185 285.714 61.3888 285.922 61.5653ZM284.768 60.6321C284.554 60.4619 284.327 60.2979 284.106 60.1277C284.327 60.2979 284.547 60.4619 284.768 60.6321ZM283.564 59.7115C283.337 59.5413 283.097 59.371 282.864 59.2071C283.097 59.3774 283.33 59.5413 283.564 59.7115ZM282.315 58.8036C282.076 58.6333 281.823 58.4631 281.578 58.2928C281.823 58.4631 282.076 58.6333 282.315 58.8036ZM281.023 57.9082C280.758 57.7316 280.487 57.5551 280.222 57.3849C280.493 57.5614 280.758 57.7316 281.023 57.9082ZM279.686 57.0318C279.352 56.8174 279.011 56.6093 278.671 56.4012C279.011 56.6093 279.352 56.8237 279.686 57.0318ZM12.8993 63.4128C12.7354 63.5641 12.5777 63.7217 12.4138 63.8794C12.5777 63.7217 12.7354 63.5704 12.8993 63.4128ZM11.8904 64.3775C11.8904 64.3775 11.8337 64.4343 11.8022 64.4658C11.7959 64.4721 11.7832 64.4847 11.7769 64.491C11.8148 64.4532 11.8526 64.4153 11.8904 64.3775V64.3775ZM11.5121 64.7621L11.4238 64.8504C11.4617 64.8126 11.4932 64.7811 11.531 64.7432L11.5121 64.7621ZM10.932 65.3548C10.8374 65.4557 10.7429 65.5566 10.6483 65.6638L10.6294 65.6827C10.7303 65.5755 10.8311 65.4683 10.932 65.3548ZM0.301163 92.5625C0.33269 92.7454 0.370521 92.9282 0.408354 93.1111C0.370521 92.9282 0.338996 92.7454 0.301163 92.5625ZM0.534469 93.6723C0.578606 93.8551 0.616437 94.038 0.660574 94.2208C0.616437 94.038 0.572301 93.8551 0.534469 93.6723ZM0.811897 94.782C0.86234 94.9649 0.906481 95.1414 0.963229 95.3243C0.912786 95.1414 0.86234 94.9649 0.811897 94.782ZM-0.121295 89.2144C-0.108685 89.3972 -0.102381 89.5801 -0.0834646 89.7629C-0.0960754 89.5801 -0.108685 89.3972 -0.121295 89.2144ZM-0.171739 88.092C-0.171739 88.2749 -0.165431 88.4577 -0.159126 88.6469C-0.165431 88.464 -0.171739 88.2812 -0.171739 88.092ZM-0.026709 90.3304C-0.00779286 90.5133 0.011121 90.6961 0.0300371 90.879C0.0300371 90.8475 0.0174236 90.8096 0.0174236 90.7781C-0.00149249 90.6268 -0.0140982 90.4818 -0.026709 90.3304ZM0.112 91.4465C0.137222 91.6293 0.162446 91.8122 0.193973 91.995C0.193973 91.9635 0.181363 91.932 0.175058 91.8942C0.149836 91.7428 0.130916 91.5915 0.112 91.4465ZM1.13348 95.8918C1.19023 96.0746 1.24698 96.2512 1.30372 96.434C1.29111 96.4088 1.28481 96.3773 1.2722 96.3521C1.22175 96.2007 1.17761 96.0494 1.12717 95.8918H1.13348ZM10.5285 110.741C10.6861 110.899 10.8374 111.056 11.0014 111.214C10.8374 111.056 10.6861 110.899 10.5285 110.741ZM1.50549 96.9952C1.56855 97.1718 1.6316 97.3546 1.70096 97.5312C1.6316 97.3546 1.56855 97.1718 1.50549 96.9952ZM1.92165 98.0923C1.99101 98.2689 2.06036 98.4518 2.13603 98.6283C2.06036 98.4518 1.99101 98.2752 1.92165 98.0923ZM2.38194 99.1832C2.46391 99.3597 2.53958 99.5363 2.62155 99.7128C2.53958 99.5363 2.46391 99.3597 2.38194 99.1832ZM2.89267 100.274C2.98095 100.451 3.06292 100.627 3.15119 100.797C3.06292 100.621 2.98095 100.444 2.89267 100.274ZM3.44755 101.352C3.54213 101.529 3.6304 101.705 3.73129 101.876C3.63671 101.699 3.54213 101.522 3.44755 101.352ZM4.04656 102.424C4.14744 102.601 4.24833 102.771 4.34921 102.947C4.24202 102.771 4.14744 102.601 4.04656 102.424ZM4.69601 103.496C4.8032 103.666 4.91039 103.843 5.02389 104.013C4.91039 103.843 4.8032 103.666 4.69601 103.496ZM5.3896 104.555C5.5031 104.726 5.6166 104.896 5.7364 105.066C5.6166 104.896 5.5031 104.726 5.3896 104.555ZM6.12733 105.608C6.24713 105.779 6.36694 105.949 6.49304 106.113C6.36694 105.943 6.24713 105.779 6.12733 105.608ZM6.9092 106.649C7.04161 106.819 7.16772 106.983 7.30013 107.153C7.16772 106.983 7.03531 106.819 6.9092 106.649ZM7.7415 107.683C7.88022 107.853 8.01894 108.017 8.15766 108.181C8.01264 108.017 7.88022 107.847 7.7415 107.683ZM8.62425 108.711C8.76928 108.875 8.9143 109.038 9.05932 109.202C8.908 109.038 8.76928 108.875 8.62425 108.711ZM9.55745 109.732C9.70878 109.89 9.8538 110.054 10.0051 110.211C9.8538 110.054 9.70248 109.89 9.55745 109.732ZM12.0355 112.197C11.8652 112.04 11.7013 111.882 11.5373 111.725C11.7013 111.882 11.8652 112.04 12.0355 112.197ZM12.6156 112.721C12.7858 112.872 12.9497 113.023 13.12 113.175C12.9497 113.023 12.7858 112.872 12.6156 112.721ZM13.7316 113.698C13.9019 113.843 14.0721 113.995 14.2487 114.14C14.0721 113.995 13.9019 113.843 13.7316 113.698ZM14.8729 114.644C15.0557 114.795 15.2386 114.94 15.4278 115.092C15.2386 114.947 15.062 114.795 14.8729 114.644ZM16.0898 115.596C16.279 115.741 16.4618 115.88 16.651 116.025C16.4618 115.88 16.279 115.741 16.0898 115.596ZM17.3761 116.554C17.5527 116.687 17.7292 116.813 17.9121 116.945C17.7292 116.819 17.5527 116.687 17.3761 116.554ZM18.6813 117.475C18.8642 117.601 19.0407 117.727 19.2236 117.853C19.0407 117.727 18.8579 117.601 18.6813 117.475ZM20.0244 118.37C20.2135 118.497 20.3964 118.616 20.5919 118.742C20.4027 118.623 20.2135 118.497 20.0244 118.37ZM21.5061 119.316C21.6701 119.417 21.8277 119.518 21.9916 119.619C21.8277 119.518 21.6701 119.417 21.5061 119.316ZM279.327 119.758C278.936 119.997 278.538 120.237 278.128 120.476C278.538 120.237 278.936 120.004 279.327 119.758Z"/>
</mask>
<path d="M277.763 54.7744L206.878 13.8463C175.515 -4.26278 124.662 -4.25647 93.5072 13.8463L23.0825 54.7744C7.55865 63.7974 -0.190656 75.6389 -0.171739 87.493C-0.171739 87.4552 -0.171739 87.4173 -0.171739 87.3795V88.4073C-0.209572 100.375 7.67214 112.361 23.4545 121.473L94.3395 162.401C95.279 162.943 96.2437 163.473 97.221 163.983C97.5489 164.154 97.8831 164.311 98.211 164.482C98.8667 164.816 99.5288 165.15 100.197 165.465C100.594 165.654 101.004 165.837 101.408 166.02C102.026 166.304 102.644 166.581 103.268 166.852C103.703 167.042 104.151 167.218 104.592 167.401C105.014 167.571 105.424 167.754 105.853 167.924C106.08 168.013 106.313 168.101 106.547 168.189C106.824 168.296 107.102 168.404 107.385 168.504C108.218 168.82 109.063 169.122 109.907 169.412C110.09 169.475 110.267 169.539 110.443 169.602C111.452 169.942 112.474 170.27 113.508 170.585C113.766 170.667 114.031 170.743 114.296 170.818C114.725 170.945 115.147 171.077 115.576 171.197C115.828 171.266 116.08 171.329 116.333 171.399C117.133 171.619 117.947 171.834 118.754 172.042C119.252 172.168 119.75 172.294 120.248 172.414C121.131 172.628 122.02 172.824 122.909 173.013C123.25 173.088 123.59 173.17 123.931 173.246C124.031 173.265 124.132 173.284 124.227 173.303C125.034 173.467 125.847 173.618 126.661 173.763C127.127 173.851 127.594 173.946 128.061 174.022C129.069 174.198 130.085 174.35 131.106 174.501C131.365 174.539 131.623 174.589 131.888 174.627C131.907 174.627 131.92 174.627 131.938 174.633C133.212 174.816 134.492 174.974 135.772 175.119C135.854 175.125 135.942 175.131 136.024 175.144C137.222 175.276 138.427 175.396 139.637 175.497C139.656 175.497 139.675 175.497 139.7 175.497C140.11 175.529 140.526 175.554 140.942 175.579C141.806 175.642 142.67 175.705 143.534 175.756C144.051 175.781 144.574 175.8 145.091 175.819C145.873 175.85 146.655 175.888 147.437 175.913C147.5 175.913 147.557 175.913 147.62 175.92C148.042 175.932 148.465 175.92 148.887 175.932C149.732 175.945 150.583 175.957 151.428 175.957C151.971 175.957 152.513 175.945 153.055 175.932C153.843 175.92 154.631 175.913 155.42 175.888C155.565 175.888 155.71 175.888 155.855 175.882C156.756 175.85 157.658 175.806 158.553 175.762C158.749 175.749 158.944 175.737 159.14 175.73C160.287 175.661 161.441 175.585 162.583 175.491C162.614 175.491 162.652 175.484 162.683 175.484C163.377 175.428 164.071 175.365 164.764 175.295C165.143 175.257 165.527 175.213 165.905 175.169C166.189 175.138 166.467 175.106 166.75 175.075C167.86 174.949 168.97 174.81 170.073 174.652C170.225 174.633 170.376 174.608 170.534 174.583C171.511 174.444 172.476 174.293 173.447 174.129C173.73 174.078 174.02 174.034 174.304 173.984C174.538 173.946 174.777 173.908 175.01 173.864C175.408 173.795 175.792 173.706 176.183 173.631C176.883 173.498 177.583 173.36 178.283 173.215C178.85 173.095 179.418 172.969 179.979 172.843C180.666 172.691 181.347 172.534 182.028 172.37C182.589 172.231 183.151 172.092 183.712 171.947C184.38 171.777 185.049 171.6 185.711 171.411C186.266 171.26 186.82 171.096 187.369 170.938C188.025 170.743 188.674 170.547 189.324 170.346C189.614 170.257 189.904 170.175 190.194 170.081C190.578 169.955 190.957 169.822 191.341 169.696C191.587 169.614 191.833 169.532 192.079 169.45C193.075 169.103 194.065 168.75 195.043 168.378C195.213 168.315 195.383 168.246 195.553 168.177C196.386 167.855 197.212 167.521 198.025 167.18C198.271 167.079 198.517 166.972 198.763 166.871C199.715 166.461 200.654 166.045 201.581 165.604C201.682 165.554 201.783 165.503 201.884 165.453C202.716 165.055 203.536 164.646 204.349 164.223C204.589 164.103 204.822 163.977 205.056 163.851C205.951 163.378 206.84 162.893 207.704 162.388L278.128 121.46C278.456 121.271 278.778 121.075 279.1 120.886C279.175 120.842 279.245 120.792 279.32 120.748C279.572 120.596 279.818 120.445 280.058 120.294C280.279 120.155 280.506 120.016 280.726 119.877C280.966 119.726 281.205 119.568 281.439 119.411C281.653 119.266 281.874 119.127 282.088 118.982C282.322 118.824 282.549 118.667 282.782 118.509C282.99 118.364 283.198 118.219 283.406 118.074C283.633 117.91 283.854 117.752 284.081 117.589C284.283 117.444 284.478 117.299 284.673 117.153C284.894 116.99 285.109 116.826 285.323 116.655C285.512 116.51 285.708 116.365 285.89 116.214C286.105 116.044 286.313 115.873 286.521 115.703C286.704 115.558 286.887 115.413 287.063 115.262C287.271 115.092 287.467 114.915 287.668 114.745C287.845 114.594 288.022 114.448 288.192 114.297C288.387 114.121 288.583 113.944 288.778 113.774C288.923 113.648 289.068 113.515 289.207 113.389C289.226 113.37 289.245 113.351 289.264 113.332C289.68 112.948 290.09 112.557 290.487 112.166C290.588 112.065 290.682 111.964 290.783 111.863C291.086 111.561 291.376 111.258 291.666 110.949C291.78 110.823 291.899 110.703 292.013 110.577C292.316 110.249 292.612 109.921 292.896 109.587C292.965 109.511 293.034 109.429 293.097 109.354C293.444 108.95 293.778 108.54 294.1 108.13C294.125 108.099 294.15 108.067 294.176 108.036C294.251 107.935 294.327 107.834 294.403 107.733C294.585 107.494 294.768 107.26 294.945 107.021C295.052 106.876 295.159 106.724 295.267 106.579C295.43 106.352 295.588 106.119 295.746 105.892C295.847 105.741 295.954 105.589 296.055 105.438C296.206 105.205 296.357 104.978 296.502 104.745C296.597 104.593 296.691 104.448 296.78 104.297C296.931 104.051 297.076 103.805 297.221 103.553C297.278 103.452 297.347 103.345 297.404 103.244C297.423 103.212 297.442 103.181 297.454 103.143C297.581 102.922 297.694 102.702 297.814 102.481C297.89 102.336 297.971 102.191 298.047 102.046C298.173 101.8 298.287 101.56 298.407 101.314C298.47 101.188 298.533 101.062 298.589 100.936C298.753 100.589 298.905 100.242 299.056 99.8957C299.069 99.8704 299.075 99.8515 299.088 99.8263C299.245 99.4543 299.39 99.0823 299.535 98.7103C299.535 98.6977 299.542 98.6913 299.548 98.6787C299.598 98.5463 299.642 98.4139 299.687 98.2815C299.769 98.0545 299.85 97.8275 299.926 97.6005C299.977 97.4429 300.021 97.2916 300.071 97.1339C300.141 96.9195 300.21 96.7052 300.267 96.4908C300.311 96.3268 300.355 96.1629 300.399 95.999C300.456 95.7909 300.513 95.5828 300.563 95.3747C300.601 95.2108 300.639 95.0405 300.676 94.8766C300.721 94.6685 300.771 94.4668 300.815 94.2587C300.822 94.2271 300.828 94.1893 300.84 94.1578C300.866 94.0254 300.885 93.893 300.91 93.7606C300.948 93.5525 300.985 93.3444 301.023 93.1363C301.048 92.9661 301.074 92.7958 301.099 92.6256C301.13 92.4175 301.156 92.2157 301.181 92.014C301.2 91.8374 301.219 91.6672 301.238 91.4906C301.257 91.2888 301.276 91.0871 301.294 90.8853C301.307 90.7087 301.32 90.5322 301.326 90.3556C301.339 90.1539 301.351 89.9521 301.357 89.7503C301.357 89.6873 301.364 89.6179 301.37 89.5549C301.376 89.3216 301.383 89.082 301.383 88.8487V87.8209C301.383 87.9722 301.383 88.1172 301.376 88.2686C301.61 76.156 293.734 63.9803 277.763 54.7618V54.7744ZM299.05 98.9247C299.006 99.0192 298.961 99.1201 298.917 99.2147C298.987 99.0571 299.056 98.9057 299.119 98.7481C299.106 98.7733 299.1 98.7985 299.088 98.8238C299.075 98.8553 299.056 98.8931 299.043 98.9247H299.05ZM298.419 100.312L298.4 100.35C298.476 100.186 298.558 100.028 298.634 99.8642C298.621 99.8894 298.615 99.9146 298.602 99.9335C298.545 100.06 298.482 100.179 298.419 100.306V100.312ZM292.908 108.578C292.908 108.578 292.883 108.603 292.87 108.616C292.959 108.515 293.053 108.414 293.135 108.307C293.123 108.32 293.116 108.332 293.104 108.345C293.041 108.421 292.971 108.496 292.902 108.578H292.908ZM280.064 119.272C280.291 119.133 280.518 118.988 280.745 118.843H280.733C280.512 118.988 280.285 119.133 280.064 119.272V119.272ZM281.514 118.345C281.716 118.213 281.918 118.08 282.113 117.948H282.101C281.905 118.087 281.71 118.213 281.514 118.345V118.345ZM282.87 117.431C283.059 117.298 283.248 117.172 283.431 117.04L283.412 117.053C283.236 117.179 283.053 117.305 282.87 117.431ZM284.15 116.523C284.333 116.391 284.522 116.252 284.705 116.119L284.686 116.132C284.51 116.264 284.333 116.391 284.15 116.523ZM285.386 115.596C285.569 115.457 285.752 115.319 285.935 115.174L285.909 115.193C285.739 115.325 285.563 115.464 285.386 115.596V115.596ZM286.578 114.657C286.754 114.512 286.937 114.367 287.107 114.221L287.082 114.24C286.918 114.379 286.748 114.512 286.578 114.65V114.657ZM287.732 113.692C287.902 113.547 288.072 113.402 288.236 113.257C288.223 113.263 288.217 113.276 288.211 113.282C288.053 113.421 287.896 113.553 287.732 113.692ZM288.835 112.721C288.993 112.576 289.15 112.437 289.302 112.292L289.276 112.317C289.131 112.45 288.98 112.588 288.829 112.721H288.835ZM95.2349 160.85L24.3499 119.922C9.05302 111.088 1.30372 99.5174 1.10195 87.9155C1.10195 87.7831 1.10194 87.6506 1.10825 87.5182C1.11456 87.3165 1.12717 87.121 1.13978 86.9192C1.15239 86.749 1.1587 86.5724 1.17131 86.4022C1.18392 86.2004 1.20914 85.9986 1.22805 85.8032C1.24697 85.6329 1.25958 85.4627 1.2848 85.2924C1.31002 85.0907 1.33525 84.8889 1.36677 84.6808C1.39199 84.5106 1.41091 84.3466 1.44243 84.1764C1.47396 83.9683 1.5118 83.7665 1.54963 83.5648C1.58116 83.4008 1.60638 83.2369 1.64421 83.0666C1.68835 82.8649 1.73249 82.6631 1.77663 82.4613C1.81446 82.2974 1.85229 82.1334 1.89012 81.9632C1.94056 81.7551 1.99731 81.5534 2.05406 81.3453C2.09819 81.1876 2.13603 81.0237 2.18647 80.8661C2.24953 80.6517 2.31888 80.4436 2.38194 80.2292C2.43238 80.0779 2.47652 79.9266 2.52696 79.7689C2.60262 79.5482 2.6846 79.3276 2.76026 79.1006C2.81071 78.9618 2.86114 78.8168 2.91159 78.6781C3.05031 78.3124 3.19533 77.9467 3.34666 77.581C3.35927 77.5494 3.37188 77.5179 3.38449 77.4927C3.52951 77.1585 3.67454 76.8243 3.83218 76.4901C3.88892 76.364 3.95197 76.2379 4.01503 76.1181C4.12852 75.8785 4.24202 75.6389 4.36813 75.4056C4.44379 75.2606 4.52577 75.1156 4.60143 74.9642C4.71493 74.7498 4.82843 74.5355 4.94823 74.3211C5.02389 74.1887 5.10586 74.05 5.18152 73.9175C5.32024 73.6716 5.46526 73.432 5.61029 73.1861C5.69856 73.0411 5.79314 72.8898 5.88772 72.7447C6.03275 72.5177 6.17777 72.2908 6.3291 72.0638C6.42998 71.9124 6.53088 71.7611 6.63176 71.6161C6.78309 71.3891 6.94703 71.1684 7.10467 70.9414C7.21186 70.7964 7.31274 70.6514 7.41993 70.5063C7.59018 70.273 7.76673 70.0397 7.94958 69.8064C8.05047 69.674 8.15135 69.5479 8.25224 69.4155C8.57381 69.012 8.9017 68.6147 9.24219 68.2112C9.30524 68.1355 9.37459 68.0598 9.44395 67.9842C9.72769 67.6563 10.0177 67.3347 10.3141 67.0132C10.4276 66.8933 10.5411 66.7672 10.6546 66.6474C10.9383 66.3448 11.2284 66.0484 11.5247 65.7521C11.6256 65.6512 11.7202 65.5566 11.8148 65.4557C12.2057 65.0711 12.6029 64.6865 13.0191 64.3018C13.1767 64.1568 13.3344 64.0181 13.492 63.8731C13.6875 63.6965 13.8766 63.5263 14.0721 63.3497C14.2423 63.2047 14.4126 63.0597 14.5828 62.9147C14.7846 62.7444 14.9801 62.5742 15.1818 62.4039C15.3584 62.2589 15.5349 62.1139 15.7178 61.9689C15.9259 61.7986 16.1276 61.6347 16.342 61.4707C16.5249 61.3257 16.714 61.1807 16.9032 61.0357C17.1176 60.8717 17.3257 60.7078 17.5464 60.5501C17.7418 60.4051 17.9373 60.2664 18.1328 60.1214C18.3534 59.9637 18.5741 59.7998 18.7948 59.6422C18.9966 59.4972 19.2047 59.3584 19.4064 59.2197C19.6334 59.0621 19.8604 58.9044 20.0874 58.7531C20.2955 58.6144 20.5099 58.4757 20.7243 58.337C20.9576 58.1856 21.1909 58.028 21.4305 57.8767C21.6449 57.738 21.8655 57.5992 22.0862 57.4668C22.3258 57.3155 22.5717 57.1642 22.8177 57.0191C23.2023 56.7858 23.5932 56.5525 23.9905 56.3192L94.4151 15.3911C95.2664 14.8929 96.1428 14.42 97.0256 13.9534C97.2589 13.8336 97.4922 13.7075 97.7255 13.5877C98.5199 13.1716 99.327 12.768 100.147 12.3771C100.248 12.3267 100.349 12.2762 100.449 12.2258C101.357 11.797 102.284 11.3809 103.224 10.9773C103.463 10.8764 103.709 10.7755 103.949 10.6683C104.75 10.3279 105.563 9.99998 106.383 9.68471C106.553 9.62165 106.717 9.55229 106.887 9.48924C107.846 9.12353 108.823 8.77043 109.807 8.42994C110.046 8.34797 110.286 8.266 110.532 8.18403C111.187 7.96334 111.856 7.74896 112.518 7.54088C113.155 7.33911 113.798 7.14364 114.441 6.95448C114.983 6.79685 115.526 6.63921 116.074 6.48788C116.724 6.30503 117.379 6.13478 118.035 5.96454C118.59 5.81951 119.139 5.68079 119.693 5.54838C120.362 5.38444 121.03 5.23311 121.705 5.08178C122.26 4.95568 122.815 4.83587 123.376 4.71607C124.057 4.57105 124.75 4.43864 125.438 4.31253C126.056 4.19273 126.673 4.07293 127.291 3.96574C127.569 3.91529 127.853 3.87115 128.13 3.82071C129.088 3.66308 130.047 3.51175 131.012 3.37303C131.157 3.35411 131.302 3.32889 131.447 3.30998C132.531 3.15865 133.628 3.01993 134.719 2.89382C134.997 2.86229 135.274 2.83077 135.551 2.80554C136.22 2.72988 136.894 2.67313 137.569 2.61008C138.414 2.53442 139.265 2.45875 140.116 2.39569C140.652 2.35786 141.182 2.32003 141.718 2.2822C142.601 2.22545 143.49 2.18762 144.379 2.14979C144.877 2.13087 145.375 2.10565 145.88 2.08673C146.649 2.06151 147.424 2.05521 148.194 2.0426C148.73 2.03629 149.266 2.02368 149.802 2.01737C150.634 2.01737 151.46 2.02998 152.292 2.0426C152.771 2.0489 153.251 2.0489 153.73 2.06151C154.499 2.08043 155.268 2.11826 156.031 2.14979C156.542 2.17501 157.059 2.18762 157.57 2.21284C158.408 2.25698 159.247 2.32003 160.086 2.38309C160.521 2.41461 160.962 2.43983 161.397 2.47136C162.519 2.56594 163.642 2.67944 164.758 2.79924C164.903 2.81185 165.054 2.82446 165.199 2.84338C166.46 2.98209 167.721 3.14603 168.97 3.32259C169.241 3.36042 169.512 3.41086 169.783 3.44869C170.786 3.60002 171.788 3.75135 172.785 3.92159C173.245 4.00356 173.699 4.09184 174.153 4.17381C174.954 4.31883 175.761 4.47016 176.555 4.6278C176.99 4.71607 177.419 4.81696 177.848 4.91154C178.724 5.1007 179.607 5.29617 180.471 5.50424C180.963 5.62405 181.448 5.75015 181.94 5.86996C182.741 6.07173 183.535 6.27981 184.33 6.50049C184.998 6.68965 185.673 6.87251 186.335 7.07428C186.593 7.14994 186.852 7.22561 187.104 7.30127C188.119 7.61024 189.122 7.93181 190.118 8.2723C190.301 8.33536 190.478 8.39841 190.654 8.46146C191.486 8.75151 192.312 9.04786 193.132 9.35683C193.409 9.45771 193.681 9.5649 193.958 9.6721C194.601 9.92431 195.238 10.1828 195.875 10.4414C196.31 10.6179 196.745 10.7945 197.18 10.9836C197.798 11.2484 198.41 11.5259 199.015 11.8033C199.412 11.9862 199.816 12.1627 200.207 12.3456C200.869 12.6608 201.518 12.9887 202.168 13.3166C202.489 13.4805 202.823 13.6382 203.139 13.8021C204.097 14.3065 205.049 14.8236 205.976 15.3595L276.861 56.2877C292.177 65.1278 299.926 76.7234 300.109 88.3379C299.844 99.7885 292.227 111.176 277.227 119.89L206.802 160.818C176.139 178.637 126.081 178.637 95.2159 160.818L95.2349 160.85ZM9.59529 66.7925C9.734 66.6348 9.87272 66.4709 10.0177 66.3133C9.87272 66.4709 9.734 66.6348 9.59529 66.7925ZM8.25224 68.4003C8.25224 68.4003 8.23332 68.4256 8.22071 68.4382C8.25224 68.4003 8.28377 68.3562 8.3153 68.3184C8.29007 68.3436 8.27116 68.3751 8.24594 68.4066L8.25224 68.4003ZM8.75037 67.7887C8.88278 67.6311 9.00888 67.4671 9.1476 67.3095C9.01519 67.4671 8.88278 67.6311 8.75037 67.7887ZM7.94958 68.7913L7.93697 68.8102L7.95588 68.785L7.94958 68.7913ZM7.41993 69.4975C7.41993 69.4975 7.40102 69.5227 7.3884 69.5416C7.43885 69.4723 7.48298 69.4092 7.53343 69.3398C7.49559 69.3903 7.45777 69.447 7.41993 69.4975V69.4975ZM6.63176 70.6135C6.63176 70.6135 6.61284 70.6387 6.60654 70.6514C6.66959 70.5568 6.73264 70.4622 6.802 70.3613C6.74525 70.4433 6.68851 70.5253 6.63806 70.6072L6.63176 70.6135ZM5.88772 71.7485C5.88772 71.7485 5.87511 71.7737 5.86881 71.78C5.95078 71.6539 6.02645 71.5278 6.10842 71.3954C6.03275 71.5089 5.96339 71.6287 5.88772 71.7422V71.7485ZM5.18152 72.9213C5.27611 72.7637 5.36438 72.606 5.46526 72.4421C5.37068 72.5997 5.28241 72.7637 5.18783 72.9213H5.18152ZM4.60143 73.968V73.9806C4.6834 73.8166 4.76537 73.6527 4.85995 73.4888C4.77168 73.6464 4.68971 73.8103 4.60143 73.968ZM4.04656 75.0525C4.12853 74.8823 4.2105 74.712 4.29878 74.5418C4.2105 74.712 4.12853 74.8823 4.04656 75.0525ZM3.55474 76.1181C3.6304 75.9479 3.70606 75.7713 3.78803 75.6011C3.70606 75.7713 3.63671 75.9479 3.55474 76.1181ZM3.10705 77.19C3.17641 77.0135 3.24577 76.8369 3.31513 76.6667C3.23947 76.8432 3.17641 77.0135 3.10705 77.19ZM2.76026 78.1043C2.74135 78.1548 2.72242 78.2115 2.70351 78.2619C2.76026 78.098 2.81701 77.9341 2.88007 77.7638C2.83593 77.8773 2.8044 77.9908 2.76026 78.098V78.1043ZM2.38194 79.233C2.36933 79.2708 2.35671 79.3023 2.35041 79.3402C2.40085 79.1825 2.44499 79.0186 2.50174 78.861C2.46391 78.9871 2.42607 79.1069 2.38824 79.233H2.38194ZM2.05406 80.349C2.05406 80.349 2.04145 80.3995 2.03514 80.4184C2.07928 80.2607 2.11711 80.1094 2.16125 79.9581C2.12341 80.0905 2.09189 80.2166 2.06037 80.349H2.05406ZM1.77663 81.4651L1.76401 81.5092C1.79554 81.3579 1.82707 81.2065 1.8649 81.0615C1.83338 81.1939 1.80815 81.3327 1.77663 81.4651V81.4651ZM1.64421 82.0704C1.64421 82.0704 1.6316 82.1334 1.6253 82.165C1.6316 82.1334 1.6379 82.0956 1.65051 82.0641V82.0767L1.64421 82.0704ZM1.54963 82.5685V82.6C1.55594 82.5307 1.56854 82.4613 1.58115 82.392C1.56854 82.4487 1.56224 82.5055 1.54963 82.5622V82.5685ZM1.44243 83.1801C1.44243 83.2117 1.42982 83.2432 1.42352 83.2747C1.42982 83.2306 1.43613 83.1864 1.44243 83.1486V83.1801V83.1801ZM1.2848 84.2962C1.2848 84.3277 1.2722 84.3592 1.2722 84.3971C1.2722 84.3466 1.28481 84.2962 1.29111 84.2457C1.29111 84.2647 1.29111 84.2836 1.29111 84.2962H1.2848ZM1.17761 85.4059C1.17761 85.4375 1.17131 85.4753 1.16501 85.5068C1.16501 85.4501 1.17761 85.387 1.17761 85.3303C1.17761 85.3555 1.17761 85.3807 1.17761 85.4059ZM1.11456 86.522C1.11456 86.5598 1.11456 86.5913 1.11456 86.6292C1.11456 86.5598 1.11456 86.4968 1.12086 86.4274C1.12086 86.4589 1.12086 86.4905 1.12086 86.522H1.11456ZM22.0862 56.4643C22.2502 56.3634 22.4141 56.2562 22.578 56.1553C22.4141 56.2562 22.2502 56.3634 22.0862 56.4643ZM20.7243 57.3344C20.8882 57.2272 21.0521 57.12 21.2161 57.0128C21.0521 57.12 20.8882 57.2272 20.7243 57.3344ZM19.4064 58.2235C19.5704 58.11 19.728 57.9965 19.8983 57.883C19.7343 57.9965 19.5767 58.11 19.4127 58.2235H19.4064ZM18.1328 59.1251C18.2967 59.0116 18.4543 58.8918 18.6246 58.772C18.4606 58.8918 18.303 59.0116 18.1391 59.1251H18.1328ZM16.9032 60.0394H16.8969C17.0608 59.9196 17.2185 59.7935 17.3887 59.6674C17.2248 59.7872 17.0672 59.9133 16.9095 60.0394H16.9032ZM15.7178 60.9726H15.7115C15.8754 60.8465 16.0331 60.7141 16.197 60.5817C16.0331 60.7078 15.8754 60.8402 15.7178 60.9726V60.9726ZM14.5828 61.9184H14.5702C14.7342 61.7923 14.8918 61.6536 15.0557 61.5149C14.8981 61.6473 14.7405 61.786 14.5828 61.9184ZM13.492 62.8768H13.4794C13.637 62.7444 13.7947 62.5931 13.9586 62.4544C13.801 62.5931 13.6433 62.7381 13.4857 62.8768H13.492ZM291.849 109.783C291.918 109.707 291.988 109.637 292.051 109.562L292.032 109.587C291.969 109.65 291.912 109.719 291.849 109.783V109.783ZM295.216 105.69C295.248 105.646 295.279 105.608 295.304 105.564L295.285 105.596C295.26 105.627 295.241 105.659 295.216 105.69ZM295.941 104.65C295.998 104.568 296.048 104.486 296.105 104.404C296.092 104.417 296.086 104.436 296.074 104.448C296.029 104.518 295.985 104.581 295.941 104.65ZM296.622 103.597C296.691 103.483 296.767 103.37 296.837 103.256C296.824 103.275 296.818 103.294 296.805 103.307C296.748 103.401 296.685 103.496 296.622 103.597V103.597ZM297.259 102.531C297.341 102.386 297.429 102.241 297.511 102.096C297.499 102.115 297.486 102.14 297.48 102.159C297.41 102.285 297.335 102.412 297.265 102.538L297.259 102.531ZM297.852 101.466C297.934 101.308 298.022 101.15 298.104 100.993C298.091 101.018 298.085 101.037 298.072 101.062C298.003 101.201 297.927 101.333 297.858 101.472L297.852 101.466ZM299.415 98.0734C299.466 97.941 299.523 97.8086 299.573 97.6762C299.573 97.6951 299.56 97.7077 299.554 97.7266C299.51 97.8464 299.46 97.9599 299.415 98.0734ZM299.813 96.9889C299.863 96.8502 299.914 96.7178 299.958 96.579C299.958 96.5917 299.951 96.6043 299.945 96.6169C299.901 96.743 299.857 96.8691 299.813 96.9889ZM300.191 95.835C300.229 95.7152 300.267 95.6017 300.298 95.4882V95.5071C300.26 95.6143 300.223 95.7278 300.191 95.835ZM300.544 94.5613C300.557 94.5046 300.576 94.4415 300.588 94.3848C300.576 94.4478 300.557 94.5046 300.544 94.5613ZM301.257 90.5259C301.257 90.5259 301.257 90.4755 301.263 90.4502V90.5259H301.257ZM301.339 89.4161V89.2963C301.339 89.2963 301.339 89.3405 301.339 89.3657V89.4161V89.4161ZM300.128 87.7389C300.128 87.5498 300.128 87.3669 300.115 87.1777C300.115 87.3669 300.128 87.5498 300.128 87.7389ZM289.585 64.8882C289.756 65.0585 289.932 65.235 290.102 65.4053C289.932 65.2287 289.762 65.0585 289.585 64.8882ZM290.55 65.8845C290.714 66.0547 290.878 66.2313 291.036 66.4015C290.878 66.2313 290.714 66.0547 290.55 65.8845ZM291.458 66.8807C291.609 67.0573 291.767 67.2275 291.918 67.4041C291.767 67.2275 291.609 67.0573 291.458 66.8807ZM292.322 67.8896C292.467 68.0661 292.618 68.2427 292.757 68.4193C292.618 68.2427 292.467 68.0661 292.322 67.8896ZM293.142 68.9111C293.28 69.0876 293.419 69.2642 293.551 69.4407C293.419 69.2642 293.28 69.0876 293.142 68.9111ZM293.917 69.9388C294.043 70.1154 294.176 70.292 294.302 70.4685C294.176 70.292 294.043 70.1154 293.917 69.9388ZM294.642 70.9729C294.762 71.1495 294.888 71.3323 295.008 71.5089C294.888 71.326 294.768 71.1495 294.642 70.9729ZM295.323 72.0196C295.437 72.2025 295.55 72.379 295.664 72.5619C295.557 72.379 295.437 72.2025 295.323 72.0196ZM295.96 73.0726C296.067 73.2555 296.174 73.432 296.275 73.6149C296.174 73.432 296.067 73.2555 295.96 73.0726ZM296.553 74.1319C296.647 74.3148 296.748 74.4976 296.843 74.6742C296.748 74.4913 296.647 74.3085 296.553 74.1319ZM297.101 75.1975C297.19 75.3804 297.284 75.5632 297.366 75.7398C297.278 75.5569 297.19 75.3741 297.101 75.1975ZM297.599 76.2631C297.681 76.446 297.763 76.6288 297.845 76.8117C297.77 76.6288 297.681 76.446 297.599 76.2631ZM298.053 77.3414C298.129 77.5242 298.205 77.7071 298.274 77.8962C298.205 77.7134 298.129 77.5305 298.053 77.3414ZM298.463 78.4259C298.526 78.6087 298.596 78.7916 298.659 78.9808C298.596 78.7979 298.526 78.6087 298.463 78.4259ZM298.829 79.5104C298.886 79.6933 298.949 79.8824 298.999 80.0653C298.943 79.8824 298.886 79.6933 298.829 79.5104ZM299.151 80.6012C299.201 80.7841 299.251 80.9733 299.302 81.1561C299.258 80.9733 299.201 80.7841 299.151 80.6012ZM299.422 81.6921C299.466 81.8812 299.51 82.0641 299.548 82.2532C299.51 82.0641 299.466 81.8812 299.422 81.6921ZM299.649 82.7892C299.687 82.9784 299.718 83.1612 299.75 83.3504C299.718 83.1612 299.68 82.9784 299.649 82.7892ZM299.832 83.8926C299.857 84.0755 299.888 84.2647 299.907 84.4475C299.882 84.2647 299.857 84.0755 299.832 83.8926ZM299.97 84.9898C299.989 85.1726 300.008 85.3618 300.027 85.5446C300.014 85.3618 299.989 85.1726 299.97 84.9898ZM300.065 86.0869C300.077 86.2761 300.09 86.4589 300.096 86.6481C300.09 86.4589 300.077 86.2761 300.065 86.0869ZM289.119 64.4406C288.942 64.264 288.759 64.0938 288.576 63.9235C288.759 64.0938 288.942 64.2703 289.119 64.4406ZM278.299 56.1679C277.832 55.8842 277.353 55.6004 276.867 55.323C277.353 55.6004 277.826 55.8842 278.299 56.1679ZM288.097 63.4695C287.914 63.2993 287.719 63.129 287.53 62.9588C287.719 63.129 287.908 63.2993 288.097 63.4695ZM287.032 62.5111C286.836 62.3409 286.634 62.1706 286.433 62.0004C286.634 62.1706 286.836 62.3409 287.032 62.5111ZM285.922 61.5653C285.714 61.3951 285.499 61.2185 285.285 61.0483C285.499 61.2185 285.714 61.3888 285.922 61.5653ZM284.768 60.6321C284.554 60.4619 284.327 60.2979 284.106 60.1277C284.327 60.2979 284.547 60.4619 284.768 60.6321ZM283.564 59.7115C283.337 59.5413 283.097 59.371 282.864 59.2071C283.097 59.3774 283.33 59.5413 283.564 59.7115ZM282.315 58.8036C282.076 58.6333 281.823 58.4631 281.578 58.2928C281.823 58.4631 282.076 58.6333 282.315 58.8036ZM281.023 57.9082C280.758 57.7316 280.487 57.5551 280.222 57.3849C280.493 57.5614 280.758 57.7316 281.023 57.9082ZM279.686 57.0318C279.352 56.8174 279.011 56.6093 278.671 56.4012C279.011 56.6093 279.352 56.8237 279.686 57.0318ZM12.8993 63.4128C12.7354 63.5641 12.5777 63.7217 12.4138 63.8794C12.5777 63.7217 12.7354 63.5704 12.8993 63.4128ZM11.8904 64.3775C11.8904 64.3775 11.8337 64.4343 11.8022 64.4658C11.7959 64.4721 11.7832 64.4847 11.7769 64.491C11.8148 64.4532 11.8526 64.4153 11.8904 64.3775V64.3775ZM11.5121 64.7621L11.4238 64.8504C11.4617 64.8126 11.4932 64.7811 11.531 64.7432L11.5121 64.7621ZM10.932 65.3548C10.8374 65.4557 10.7429 65.5566 10.6483 65.6638L10.6294 65.6827C10.7303 65.5755 10.8311 65.4683 10.932 65.3548ZM0.301163 92.5625C0.33269 92.7454 0.370521 92.9282 0.408354 93.1111C0.370521 92.9282 0.338996 92.7454 0.301163 92.5625ZM0.534469 93.6723C0.578606 93.8551 0.616437 94.038 0.660574 94.2208C0.616437 94.038 0.572301 93.8551 0.534469 93.6723ZM0.811897 94.782C0.86234 94.9649 0.906481 95.1414 0.963229 95.3243C0.912786 95.1414 0.86234 94.9649 0.811897 94.782ZM-0.121295 89.2144C-0.108685 89.3972 -0.102381 89.5801 -0.0834646 89.7629C-0.0960754 89.5801 -0.108685 89.3972 -0.121295 89.2144ZM-0.171739 88.092C-0.171739 88.2749 -0.165431 88.4577 -0.159126 88.6469C-0.165431 88.464 -0.171739 88.2812 -0.171739 88.092ZM-0.026709 90.3304C-0.00779286 90.5133 0.011121 90.6961 0.0300371 90.879C0.0300371 90.8475 0.0174236 90.8096 0.0174236 90.7781C-0.00149249 90.6268 -0.0140982 90.4818 -0.026709 90.3304ZM0.112 91.4465C0.137222 91.6293 0.162446 91.8122 0.193973 91.995C0.193973 91.9635 0.181363 91.932 0.175058 91.8942C0.149836 91.7428 0.130916 91.5915 0.112 91.4465ZM1.13348 95.8918C1.19023 96.0746 1.24698 96.2512 1.30372 96.434C1.29111 96.4088 1.28481 96.3773 1.2722 96.3521C1.22175 96.2007 1.17761 96.0494 1.12717 95.8918H1.13348ZM10.5285 110.741C10.6861 110.899 10.8374 111.056 11.0014 111.214C10.8374 111.056 10.6861 110.899 10.5285 110.741ZM1.50549 96.9952C1.56855 97.1718 1.6316 97.3546 1.70096 97.5312C1.6316 97.3546 1.56855 97.1718 1.50549 96.9952ZM1.92165 98.0923C1.99101 98.2689 2.06036 98.4518 2.13603 98.6283C2.06036 98.4518 1.99101 98.2752 1.92165 98.0923ZM2.38194 99.1832C2.46391 99.3597 2.53958 99.5363 2.62155 99.7128C2.53958 99.5363 2.46391 99.3597 2.38194 99.1832ZM2.89267 100.274C2.98095 100.451 3.06292 100.627 3.15119 100.797C3.06292 100.621 2.98095 100.444 2.89267 100.274ZM3.44755 101.352C3.54213 101.529 3.6304 101.705 3.73129 101.876C3.63671 101.699 3.54213 101.522 3.44755 101.352ZM4.04656 102.424C4.14744 102.601 4.24833 102.771 4.34921 102.947C4.24202 102.771 4.14744 102.601 4.04656 102.424ZM4.69601 103.496C4.8032 103.666 4.91039 103.843 5.02389 104.013C4.91039 103.843 4.8032 103.666 4.69601 103.496ZM5.3896 104.555C5.5031 104.726 5.6166 104.896 5.7364 105.066C5.6166 104.896 5.5031 104.726 5.3896 104.555ZM6.12733 105.608C6.24713 105.779 6.36694 105.949 6.49304 106.113C6.36694 105.943 6.24713 105.779 6.12733 105.608ZM6.9092 106.649C7.04161 106.819 7.16772 106.983 7.30013 107.153C7.16772 106.983 7.03531 106.819 6.9092 106.649ZM7.7415 107.683C7.88022 107.853 8.01894 108.017 8.15766 108.181C8.01264 108.017 7.88022 107.847 7.7415 107.683ZM8.62425 108.711C8.76928 108.875 8.9143 109.038 9.05932 109.202C8.908 109.038 8.76928 108.875 8.62425 108.711ZM9.55745 109.732C9.70878 109.89 9.8538 110.054 10.0051 110.211C9.8538 110.054 9.70248 109.89 9.55745 109.732ZM12.0355 112.197C11.8652 112.04 11.7013 111.882 11.5373 111.725C11.7013 111.882 11.8652 112.04 12.0355 112.197ZM12.6156 112.721C12.7858 112.872 12.9497 113.023 13.12 113.175C12.9497 113.023 12.7858 112.872 12.6156 112.721ZM13.7316 113.698C13.9019 113.843 14.0721 113.995 14.2487 114.14C14.0721 113.995 13.9019 113.843 13.7316 113.698ZM14.8729 114.644C15.0557 114.795 15.2386 114.94 15.4278 115.092C15.2386 114.947 15.062 114.795 14.8729 114.644ZM16.0898 115.596C16.279 115.741 16.4618 115.88 16.651 116.025C16.4618 115.88 16.279 115.741 16.0898 115.596ZM17.3761 116.554C17.5527 116.687 17.7292 116.813 17.9121 116.945C17.7292 116.819 17.5527 116.687 17.3761 116.554ZM18.6813 117.475C18.8642 117.601 19.0407 117.727 19.2236 117.853C19.0407 117.727 18.8579 117.601 18.6813 117.475ZM20.0244 118.37C20.2135 118.497 20.3964 118.616 20.5919 118.742C20.4027 118.623 20.2135 118.497 20.0244 118.37ZM21.5061 119.316C21.6701 119.417 21.8277 119.518 21.9916 119.619C21.8277 119.518 21.6701 119.417 21.5061 119.316ZM279.327 119.758C278.936 119.997 278.538 120.237 278.128 120.476C278.538 120.237 278.936 120.004 279.327 119.758Z" fill="#007FFF"/>
<path d="M277.763 54.7744L206.878 13.8463C175.515 -4.26278 124.662 -4.25647 93.5072 13.8463L23.0825 54.7744C7.55865 63.7974 -0.190656 75.6389 -0.171739 87.493C-0.171739 87.4552 -0.171739 87.4173 -0.171739 87.3795V88.4073C-0.209572 100.375 7.67214 112.361 23.4545 121.473L94.3395 162.401C95.279 162.943 96.2437 163.473 97.221 163.983C97.5489 164.154 97.8831 164.311 98.211 164.482C98.8667 164.816 99.5288 165.15 100.197 165.465C100.594 165.654 101.004 165.837 101.408 166.02C102.026 166.304 102.644 166.581 103.268 166.852C103.703 167.042 104.151 167.218 104.592 167.401C105.014 167.571 105.424 167.754 105.853 167.924C106.08 168.013 106.313 168.101 106.547 168.189C106.824 168.296 107.102 168.404 107.385 168.504C108.218 168.82 109.063 169.122 109.907 169.412C110.09 169.475 110.267 169.539 110.443 169.602C111.452 169.942 112.474 170.27 113.508 170.585C113.766 170.667 114.031 170.743 114.296 170.818C114.725 170.945 115.147 171.077 115.576 171.197C115.828 171.266 116.08 171.329 116.333 171.399C117.133 171.619 117.947 171.834 118.754 172.042C119.252 172.168 119.75 172.294 120.248 172.414C121.131 172.628 122.02 172.824 122.909 173.013C123.25 173.088 123.59 173.17 123.931 173.246C124.031 173.265 124.132 173.284 124.227 173.303C125.034 173.467 125.847 173.618 126.661 173.763C127.127 173.851 127.594 173.946 128.061 174.022C129.069 174.198 130.085 174.35 131.106 174.501C131.365 174.539 131.623 174.589 131.888 174.627C131.907 174.627 131.92 174.627 131.938 174.633C133.212 174.816 134.492 174.974 135.772 175.119C135.854 175.125 135.942 175.131 136.024 175.144C137.222 175.276 138.427 175.396 139.637 175.497C139.656 175.497 139.675 175.497 139.7 175.497C140.11 175.529 140.526 175.554 140.942 175.579C141.806 175.642 142.67 175.705 143.534 175.756C144.051 175.781 144.574 175.8 145.091 175.819C145.873 175.85 146.655 175.888 147.437 175.913C147.5 175.913 147.557 175.913 147.62 175.92C148.042 175.932 148.465 175.92 148.887 175.932C149.732 175.945 150.583 175.957 151.428 175.957C151.971 175.957 152.513 175.945 153.055 175.932C153.843 175.92 154.631 175.913 155.42 175.888C155.565 175.888 155.71 175.888 155.855 175.882C156.756 175.85 157.658 175.806 158.553 175.762C158.749 175.749 158.944 175.737 159.14 175.73C160.287 175.661 161.441 175.585 162.583 175.491C162.614 175.491 162.652 175.484 162.683 175.484C163.377 175.428 164.071 175.365 164.764 175.295C165.143 175.257 165.527 175.213 165.905 175.169C166.189 175.138 166.467 175.106 166.75 175.075C167.86 174.949 168.97 174.81 170.073 174.652C170.225 174.633 170.376 174.608 170.534 174.583C171.511 174.444 172.476 174.293 173.447 174.129C173.73 174.078 174.02 174.034 174.304 173.984C174.538 173.946 174.777 173.908 175.01 173.864C175.408 173.795 175.792 173.706 176.183 173.631C176.883 173.498 177.583 173.36 178.283 173.215C178.85 173.095 179.418 172.969 179.979 172.843C180.666 172.691 181.347 172.534 182.028 172.37C182.589 172.231 183.151 172.092 183.712 171.947C184.38 171.777 185.049 171.6 185.711 171.411C186.266 171.26 186.82 171.096 187.369 170.938C188.025 170.743 188.674 170.547 189.324 170.346C189.614 170.257 189.904 170.175 190.194 170.081C190.578 169.955 190.957 169.822 191.341 169.696C191.587 169.614 191.833 169.532 192.079 169.45C193.075 169.103 194.065 168.75 195.043 168.378C195.213 168.315 195.383 168.246 195.553 168.177C196.386 167.855 197.212 167.521 198.025 167.18C198.271 167.079 198.517 166.972 198.763 166.871C199.715 166.461 200.654 166.045 201.581 165.604C201.682 165.554 201.783 165.503 201.884 165.453C202.716 165.055 203.536 164.646 204.349 164.223C204.589 164.103 204.822 163.977 205.056 163.851C205.951 163.378 206.84 162.893 207.704 162.388L278.128 121.46C278.456 121.271 278.778 121.075 279.1 120.886C279.175 120.842 279.245 120.792 279.32 120.748C279.572 120.596 279.818 120.445 280.058 120.294C280.279 120.155 280.506 120.016 280.726 119.877C280.966 119.726 281.205 119.568 281.439 119.411C281.653 119.266 281.874 119.127 282.088 118.982C282.322 118.824 282.549 118.667 282.782 118.509C282.99 118.364 283.198 118.219 283.406 118.074C283.633 117.91 283.854 117.752 284.081 117.589C284.283 117.444 284.478 117.299 284.673 117.153C284.894 116.99 285.109 116.826 285.323 116.655C285.512 116.51 285.708 116.365 285.89 116.214C286.105 116.044 286.313 115.873 286.521 115.703C286.704 115.558 286.887 115.413 287.063 115.262C287.271 115.092 287.467 114.915 287.668 114.745C287.845 114.594 288.022 114.448 288.192 114.297C288.387 114.121 288.583 113.944 288.778 113.774C288.923 113.648 289.068 113.515 289.207 113.389C289.226 113.37 289.245 113.351 289.264 113.332C289.68 112.948 290.09 112.557 290.487 112.166C290.588 112.065 290.682 111.964 290.783 111.863C291.086 111.561 291.376 111.258 291.666 110.949C291.78 110.823 291.899 110.703 292.013 110.577C292.316 110.249 292.612 109.921 292.896 109.587C292.965 109.511 293.034 109.429 293.097 109.354C293.444 108.95 293.778 108.54 294.1 108.13C294.125 108.099 294.15 108.067 294.176 108.036C294.251 107.935 294.327 107.834 294.403 107.733C294.585 107.494 294.768 107.26 294.945 107.021C295.052 106.876 295.159 106.724 295.267 106.579C295.43 106.352 295.588 106.119 295.746 105.892C295.847 105.741 295.954 105.589 296.055 105.438C296.206 105.205 296.357 104.978 296.502 104.745C296.597 104.593 296.691 104.448 296.78 104.297C296.931 104.051 297.076 103.805 297.221 103.553C297.278 103.452 297.347 103.345 297.404 103.244C297.423 103.212 297.442 103.181 297.454 103.143C297.581 102.922 297.694 102.702 297.814 102.481C297.89 102.336 297.971 102.191 298.047 102.046C298.173 101.8 298.287 101.56 298.407 101.314C298.47 101.188 298.533 101.062 298.589 100.936C298.753 100.589 298.905 100.242 299.056 99.8957C299.069 99.8704 299.075 99.8515 299.088 99.8263C299.245 99.4543 299.39 99.0823 299.535 98.7103C299.535 98.6977 299.542 98.6913 299.548 98.6787C299.598 98.5463 299.642 98.4139 299.687 98.2815C299.769 98.0545 299.85 97.8275 299.926 97.6005C299.977 97.4429 300.021 97.2916 300.071 97.1339C300.141 96.9195 300.21 96.7052 300.267 96.4908C300.311 96.3268 300.355 96.1629 300.399 95.999C300.456 95.7909 300.513 95.5828 300.563 95.3747C300.601 95.2108 300.639 95.0405 300.676 94.8766C300.721 94.6685 300.771 94.4668 300.815 94.2587C300.822 94.2271 300.828 94.1893 300.84 94.1578C300.866 94.0254 300.885 93.893 300.91 93.7606C300.948 93.5525 300.985 93.3444 301.023 93.1363C301.048 92.9661 301.074 92.7958 301.099 92.6256C301.13 92.4175 301.156 92.2157 301.181 92.014C301.2 91.8374 301.219 91.6672 301.238 91.4906C301.257 91.2888 301.276 91.0871 301.294 90.8853C301.307 90.7087 301.32 90.5322 301.326 90.3556C301.339 90.1539 301.351 89.9521 301.357 89.7503C301.357 89.6873 301.364 89.6179 301.37 89.5549C301.376 89.3216 301.383 89.082 301.383 88.8487V87.8209C301.383 87.9722 301.383 88.1172 301.376 88.2686C301.61 76.156 293.734 63.9803 277.763 54.7618V54.7744ZM299.05 98.9247C299.006 99.0192 298.961 99.1201 298.917 99.2147C298.987 99.0571 299.056 98.9057 299.119 98.7481C299.106 98.7733 299.1 98.7985 299.088 98.8238C299.075 98.8553 299.056 98.8931 299.043 98.9247H299.05ZM298.419 100.312L298.4 100.35C298.476 100.186 298.558 100.028 298.634 99.8642C298.621 99.8894 298.615 99.9146 298.602 99.9335C298.545 100.06 298.482 100.179 298.419 100.306V100.312ZM292.908 108.578C292.908 108.578 292.883 108.603 292.87 108.616C292.959 108.515 293.053 108.414 293.135 108.307C293.123 108.32 293.116 108.332 293.104 108.345C293.041 108.421 292.971 108.496 292.902 108.578H292.908ZM280.064 119.272C280.291 119.133 280.518 118.988 280.745 118.843H280.733C280.512 118.988 280.285 119.133 280.064 119.272V119.272ZM281.514 118.345C281.716 118.213 281.918 118.08 282.113 117.948H282.101C281.905 118.087 281.71 118.213 281.514 118.345V118.345ZM282.87 117.431C283.059 117.298 283.248 117.172 283.431 117.04L283.412 117.053C283.236 117.179 283.053 117.305 282.87 117.431ZM284.15 116.523C284.333 116.391 284.522 116.252 284.705 116.119L284.686 116.132C284.51 116.264 284.333 116.391 284.15 116.523ZM285.386 115.596C285.569 115.457 285.752 115.319 285.935 115.174L285.909 115.193C285.739 115.325 285.563 115.464 285.386 115.596V115.596ZM286.578 114.657C286.754 114.512 286.937 114.367 287.107 114.221L287.082 114.24C286.918 114.379 286.748 114.512 286.578 114.65V114.657ZM287.732 113.692C287.902 113.547 288.072 113.402 288.236 113.257C288.223 113.263 288.217 113.276 288.211 113.282C288.053 113.421 287.896 113.553 287.732 113.692ZM288.835 112.721C288.993 112.576 289.15 112.437 289.302 112.292L289.276 112.317C289.131 112.45 288.98 112.588 288.829 112.721H288.835ZM95.2349 160.85L24.3499 119.922C9.05302 111.088 1.30372 99.5174 1.10195 87.9155C1.10195 87.7831 1.10194 87.6506 1.10825 87.5182C1.11456 87.3165 1.12717 87.121 1.13978 86.9192C1.15239 86.749 1.1587 86.5724 1.17131 86.4022C1.18392 86.2004 1.20914 85.9986 1.22805 85.8032C1.24697 85.6329 1.25958 85.4627 1.2848 85.2924C1.31002 85.0907 1.33525 84.8889 1.36677 84.6808C1.39199 84.5106 1.41091 84.3466 1.44243 84.1764C1.47396 83.9683 1.5118 83.7665 1.54963 83.5648C1.58116 83.4008 1.60638 83.2369 1.64421 83.0666C1.68835 82.8649 1.73249 82.6631 1.77663 82.4613C1.81446 82.2974 1.85229 82.1334 1.89012 81.9632C1.94056 81.7551 1.99731 81.5534 2.05406 81.3453C2.09819 81.1876 2.13603 81.0237 2.18647 80.8661C2.24953 80.6517 2.31888 80.4436 2.38194 80.2292C2.43238 80.0779 2.47652 79.9266 2.52696 79.7689C2.60262 79.5482 2.6846 79.3276 2.76026 79.1006C2.81071 78.9618 2.86114 78.8168 2.91159 78.6781C3.05031 78.3124 3.19533 77.9467 3.34666 77.581C3.35927 77.5494 3.37188 77.5179 3.38449 77.4927C3.52951 77.1585 3.67454 76.8243 3.83218 76.4901C3.88892 76.364 3.95197 76.2379 4.01503 76.1181C4.12852 75.8785 4.24202 75.6389 4.36813 75.4056C4.44379 75.2606 4.52577 75.1156 4.60143 74.9642C4.71493 74.7498 4.82843 74.5355 4.94823 74.3211C5.02389 74.1887 5.10586 74.05 5.18152 73.9175C5.32024 73.6716 5.46526 73.432 5.61029 73.1861C5.69856 73.0411 5.79314 72.8898 5.88772 72.7447C6.03275 72.5177 6.17777 72.2908 6.3291 72.0638C6.42998 71.9124 6.53088 71.7611 6.63176 71.6161C6.78309 71.3891 6.94703 71.1684 7.10467 70.9414C7.21186 70.7964 7.31274 70.6514 7.41993 70.5063C7.59018 70.273 7.76673 70.0397 7.94958 69.8064C8.05047 69.674 8.15135 69.5479 8.25224 69.4155C8.57381 69.012 8.9017 68.6147 9.24219 68.2112C9.30524 68.1355 9.37459 68.0598 9.44395 67.9842C9.72769 67.6563 10.0177 67.3347 10.3141 67.0132C10.4276 66.8933 10.5411 66.7672 10.6546 66.6474C10.9383 66.3448 11.2284 66.0484 11.5247 65.7521C11.6256 65.6512 11.7202 65.5566 11.8148 65.4557C12.2057 65.0711 12.6029 64.6865 13.0191 64.3018C13.1767 64.1568 13.3344 64.0181 13.492 63.8731C13.6875 63.6965 13.8766 63.5263 14.0721 63.3497C14.2423 63.2047 14.4126 63.0597 14.5828 62.9147C14.7846 62.7444 14.9801 62.5742 15.1818 62.4039C15.3584 62.2589 15.5349 62.1139 15.7178 61.9689C15.9259 61.7986 16.1276 61.6347 16.342 61.4707C16.5249 61.3257 16.714 61.1807 16.9032 61.0357C17.1176 60.8717 17.3257 60.7078 17.5464 60.5501C17.7418 60.4051 17.9373 60.2664 18.1328 60.1214C18.3534 59.9637 18.5741 59.7998 18.7948 59.6422C18.9966 59.4972 19.2047 59.3584 19.4064 59.2197C19.6334 59.0621 19.8604 58.9044 20.0874 58.7531C20.2955 58.6144 20.5099 58.4757 20.7243 58.337C20.9576 58.1856 21.1909 58.028 21.4305 57.8767C21.6449 57.738 21.8655 57.5992 22.0862 57.4668C22.3258 57.3155 22.5717 57.1642 22.8177 57.0191C23.2023 56.7858 23.5932 56.5525 23.9905 56.3192L94.4151 15.3911C95.2664 14.8929 96.1428 14.42 97.0256 13.9534C97.2589 13.8336 97.4922 13.7075 97.7255 13.5877C98.5199 13.1716 99.327 12.768 100.147 12.3771C100.248 12.3267 100.349 12.2762 100.449 12.2258C101.357 11.797 102.284 11.3809 103.224 10.9773C103.463 10.8764 103.709 10.7755 103.949 10.6683C104.75 10.3279 105.563 9.99998 106.383 9.68471C106.553 9.62165 106.717 9.55229 106.887 9.48924C107.846 9.12353 108.823 8.77043 109.807 8.42994C110.046 8.34797 110.286 8.266 110.532 8.18403C111.187 7.96334 111.856 7.74896 112.518 7.54088C113.155 7.33911 113.798 7.14364 114.441 6.95448C114.983 6.79685 115.526 6.63921 116.074 6.48788C116.724 6.30503 117.379 6.13478 118.035 5.96454C118.59 5.81951 119.139 5.68079 119.693 5.54838C120.362 5.38444 121.03 5.23311 121.705 5.08178C122.26 4.95568 122.815 4.83587 123.376 4.71607C124.057 4.57105 124.75 4.43864 125.438 4.31253C126.056 4.19273 126.673 4.07293 127.291 3.96574C127.569 3.91529 127.853 3.87115 128.13 3.82071C129.088 3.66308 130.047 3.51175 131.012 3.37303C131.157 3.35411 131.302 3.32889 131.447 3.30998C132.531 3.15865 133.628 3.01993 134.719 2.89382C134.997 2.86229 135.274 2.83077 135.551 2.80554C136.22 2.72988 136.894 2.67313 137.569 2.61008C138.414 2.53442 139.265 2.45875 140.116 2.39569C140.652 2.35786 141.182 2.32003 141.718 2.2822C142.601 2.22545 143.49 2.18762 144.379 2.14979C144.877 2.13087 145.375 2.10565 145.88 2.08673C146.649 2.06151 147.424 2.05521 148.194 2.0426C148.73 2.03629 149.266 2.02368 149.802 2.01737C150.634 2.01737 151.46 2.02998 152.292 2.0426C152.771 2.0489 153.251 2.0489 153.73 2.06151C154.499 2.08043 155.268 2.11826 156.031 2.14979C156.542 2.17501 157.059 2.18762 157.57 2.21284C158.408 2.25698 159.247 2.32003 160.086 2.38309C160.521 2.41461 160.962 2.43983 161.397 2.47136C162.519 2.56594 163.642 2.67944 164.758 2.79924C164.903 2.81185 165.054 2.82446 165.199 2.84338C166.46 2.98209 167.721 3.14603 168.97 3.32259C169.241 3.36042 169.512 3.41086 169.783 3.44869C170.786 3.60002 171.788 3.75135 172.785 3.92159C173.245 4.00356 173.699 4.09184 174.153 4.17381C174.954 4.31883 175.761 4.47016 176.555 4.6278C176.99 4.71607 177.419 4.81696 177.848 4.91154C178.724 5.1007 179.607 5.29617 180.471 5.50424C180.963 5.62405 181.448 5.75015 181.94 5.86996C182.741 6.07173 183.535 6.27981 184.33 6.50049C184.998 6.68965 185.673 6.87251 186.335 7.07428C186.593 7.14994 186.852 7.22561 187.104 7.30127C188.119 7.61024 189.122 7.93181 190.118 8.2723C190.301 8.33536 190.478 8.39841 190.654 8.46146C191.486 8.75151 192.312 9.04786 193.132 9.35683C193.409 9.45771 193.681 9.5649 193.958 9.6721C194.601 9.92431 195.238 10.1828 195.875 10.4414C196.31 10.6179 196.745 10.7945 197.18 10.9836C197.798 11.2484 198.41 11.5259 199.015 11.8033C199.412 11.9862 199.816 12.1627 200.207 12.3456C200.869 12.6608 201.518 12.9887 202.168 13.3166C202.489 13.4805 202.823 13.6382 203.139 13.8021C204.097 14.3065 205.049 14.8236 205.976 15.3595L276.861 56.2877C292.177 65.1278 299.926 76.7234 300.109 88.3379C299.844 99.7885 292.227 111.176 277.227 119.89L206.802 160.818C176.139 178.637 126.081 178.637 95.2159 160.818L95.2349 160.85ZM9.59529 66.7925C9.734 66.6348 9.87272 66.4709 10.0177 66.3133C9.87272 66.4709 9.734 66.6348 9.59529 66.7925ZM8.25224 68.4003C8.25224 68.4003 8.23332 68.4256 8.22071 68.4382C8.25224 68.4003 8.28377 68.3562 8.3153 68.3184C8.29007 68.3436 8.27116 68.3751 8.24594 68.4066L8.25224 68.4003ZM8.75037 67.7887C8.88278 67.6311 9.00888 67.4671 9.1476 67.3095C9.01519 67.4671 8.88278 67.6311 8.75037 67.7887ZM7.94958 68.7913L7.93697 68.8102L7.95588 68.785L7.94958 68.7913ZM7.41993 69.4975C7.41993 69.4975 7.40102 69.5227 7.3884 69.5416C7.43885 69.4723 7.48298 69.4092 7.53343 69.3398C7.49559 69.3903 7.45777 69.447 7.41993 69.4975V69.4975ZM6.63176 70.6135C6.63176 70.6135 6.61284 70.6387 6.60654 70.6514C6.66959 70.5568 6.73264 70.4622 6.802 70.3613C6.74525 70.4433 6.68851 70.5253 6.63806 70.6072L6.63176 70.6135ZM5.88772 71.7485C5.88772 71.7485 5.87511 71.7737 5.86881 71.78C5.95078 71.6539 6.02645 71.5278 6.10842 71.3954C6.03275 71.5089 5.96339 71.6287 5.88772 71.7422V71.7485ZM5.18152 72.9213C5.27611 72.7637 5.36438 72.606 5.46526 72.4421C5.37068 72.5997 5.28241 72.7637 5.18783 72.9213H5.18152ZM4.60143 73.968V73.9806C4.6834 73.8166 4.76537 73.6527 4.85995 73.4888C4.77168 73.6464 4.68971 73.8103 4.60143 73.968ZM4.04656 75.0525C4.12853 74.8823 4.2105 74.712 4.29878 74.5418C4.2105 74.712 4.12853 74.8823 4.04656 75.0525ZM3.55474 76.1181C3.6304 75.9479 3.70606 75.7713 3.78803 75.6011C3.70606 75.7713 3.63671 75.9479 3.55474 76.1181ZM3.10705 77.19C3.17641 77.0135 3.24577 76.8369 3.31513 76.6667C3.23947 76.8432 3.17641 77.0135 3.10705 77.19ZM2.76026 78.1043C2.74135 78.1548 2.72242 78.2115 2.70351 78.2619C2.76026 78.098 2.81701 77.9341 2.88007 77.7638C2.83593 77.8773 2.8044 77.9908 2.76026 78.098V78.1043ZM2.38194 79.233C2.36933 79.2708 2.35671 79.3023 2.35041 79.3402C2.40085 79.1825 2.44499 79.0186 2.50174 78.861C2.46391 78.9871 2.42607 79.1069 2.38824 79.233H2.38194ZM2.05406 80.349C2.05406 80.349 2.04145 80.3995 2.03514 80.4184C2.07928 80.2607 2.11711 80.1094 2.16125 79.9581C2.12341 80.0905 2.09189 80.2166 2.06037 80.349H2.05406ZM1.77663 81.4651L1.76401 81.5092C1.79554 81.3579 1.82707 81.2065 1.8649 81.0615C1.83338 81.1939 1.80815 81.3327 1.77663 81.4651V81.4651ZM1.64421 82.0704C1.64421 82.0704 1.6316 82.1334 1.6253 82.165C1.6316 82.1334 1.6379 82.0956 1.65051 82.0641V82.0767L1.64421 82.0704ZM1.54963 82.5685V82.6C1.55594 82.5307 1.56854 82.4613 1.58115 82.392C1.56854 82.4487 1.56224 82.5055 1.54963 82.5622V82.5685ZM1.44243 83.1801C1.44243 83.2117 1.42982 83.2432 1.42352 83.2747C1.42982 83.2306 1.43613 83.1864 1.44243 83.1486V83.1801V83.1801ZM1.2848 84.2962C1.2848 84.3277 1.2722 84.3592 1.2722 84.3971C1.2722 84.3466 1.28481 84.2962 1.29111 84.2457C1.29111 84.2647 1.29111 84.2836 1.29111 84.2962H1.2848ZM1.17761 85.4059C1.17761 85.4375 1.17131 85.4753 1.16501 85.5068C1.16501 85.4501 1.17761 85.387 1.17761 85.3303C1.17761 85.3555 1.17761 85.3807 1.17761 85.4059ZM1.11456 86.522C1.11456 86.5598 1.11456 86.5913 1.11456 86.6292C1.11456 86.5598 1.11456 86.4968 1.12086 86.4274C1.12086 86.4589 1.12086 86.4905 1.12086 86.522H1.11456ZM22.0862 56.4643C22.2502 56.3634 22.4141 56.2562 22.578 56.1553C22.4141 56.2562 22.2502 56.3634 22.0862 56.4643ZM20.7243 57.3344C20.8882 57.2272 21.0521 57.12 21.2161 57.0128C21.0521 57.12 20.8882 57.2272 20.7243 57.3344ZM19.4064 58.2235C19.5704 58.11 19.728 57.9965 19.8983 57.883C19.7343 57.9965 19.5767 58.11 19.4127 58.2235H19.4064ZM18.1328 59.1251C18.2967 59.0116 18.4543 58.8918 18.6246 58.772C18.4606 58.8918 18.303 59.0116 18.1391 59.1251H18.1328ZM16.9032 60.0394H16.8969C17.0608 59.9196 17.2185 59.7935 17.3887 59.6674C17.2248 59.7872 17.0672 59.9133 16.9095 60.0394H16.9032ZM15.7178 60.9726H15.7115C15.8754 60.8465 16.0331 60.7141 16.197 60.5817C16.0331 60.7078 15.8754 60.8402 15.7178 60.9726V60.9726ZM14.5828 61.9184H14.5702C14.7342 61.7923 14.8918 61.6536 15.0557 61.5149C14.8981 61.6473 14.7405 61.786 14.5828 61.9184ZM13.492 62.8768H13.4794C13.637 62.7444 13.7947 62.5931 13.9586 62.4544C13.801 62.5931 13.6433 62.7381 13.4857 62.8768H13.492ZM291.849 109.783C291.918 109.707 291.988 109.637 292.051 109.562L292.032 109.587C291.969 109.65 291.912 109.719 291.849 109.783V109.783ZM295.216 105.69C295.248 105.646 295.279 105.608 295.304 105.564L295.285 105.596C295.26 105.627 295.241 105.659 295.216 105.69ZM295.941 104.65C295.998 104.568 296.048 104.486 296.105 104.404C296.092 104.417 296.086 104.436 296.074 104.448C296.029 104.518 295.985 104.581 295.941 104.65ZM296.622 103.597C296.691 103.483 296.767 103.37 296.837 103.256C296.824 103.275 296.818 103.294 296.805 103.307C296.748 103.401 296.685 103.496 296.622 103.597V103.597ZM297.259 102.531C297.341 102.386 297.429 102.241 297.511 102.096C297.499 102.115 297.486 102.14 297.48 102.159C297.41 102.285 297.335 102.412 297.265 102.538L297.259 102.531ZM297.852 101.466C297.934 101.308 298.022 101.15 298.104 100.993C298.091 101.018 298.085 101.037 298.072 101.062C298.003 101.201 297.927 101.333 297.858 101.472L297.852 101.466ZM299.415 98.0734C299.466 97.941 299.523 97.8086 299.573 97.6762C299.573 97.6951 299.56 97.7077 299.554 97.7266C299.51 97.8464 299.46 97.9599 299.415 98.0734ZM299.813 96.9889C299.863 96.8502 299.914 96.7178 299.958 96.579C299.958 96.5917 299.951 96.6043 299.945 96.6169C299.901 96.743 299.857 96.8691 299.813 96.9889ZM300.191 95.835C300.229 95.7152 300.267 95.6017 300.298 95.4882V95.5071C300.26 95.6143 300.223 95.7278 300.191 95.835ZM300.544 94.5613C300.557 94.5046 300.576 94.4415 300.588 94.3848C300.576 94.4478 300.557 94.5046 300.544 94.5613ZM301.257 90.5259C301.257 90.5259 301.257 90.4755 301.263 90.4502V90.5259H301.257ZM301.339 89.4161V89.2963C301.339 89.2963 301.339 89.3405 301.339 89.3657V89.4161V89.4161ZM300.128 87.7389C300.128 87.5498 300.128 87.3669 300.115 87.1777C300.115 87.3669 300.128 87.5498 300.128 87.7389ZM289.585 64.8882C289.756 65.0585 289.932 65.235 290.102 65.4053C289.932 65.2287 289.762 65.0585 289.585 64.8882ZM290.55 65.8845C290.714 66.0547 290.878 66.2313 291.036 66.4015C290.878 66.2313 290.714 66.0547 290.55 65.8845ZM291.458 66.8807C291.609 67.0573 291.767 67.2275 291.918 67.4041C291.767 67.2275 291.609 67.0573 291.458 66.8807ZM292.322 67.8896C292.467 68.0661 292.618 68.2427 292.757 68.4193C292.618 68.2427 292.467 68.0661 292.322 67.8896ZM293.142 68.9111C293.28 69.0876 293.419 69.2642 293.551 69.4407C293.419 69.2642 293.28 69.0876 293.142 68.9111ZM293.917 69.9388C294.043 70.1154 294.176 70.292 294.302 70.4685C294.176 70.292 294.043 70.1154 293.917 69.9388ZM294.642 70.9729C294.762 71.1495 294.888 71.3323 295.008 71.5089C294.888 71.326 294.768 71.1495 294.642 70.9729ZM295.323 72.0196C295.437 72.2025 295.55 72.379 295.664 72.5619C295.557 72.379 295.437 72.2025 295.323 72.0196ZM295.96 73.0726C296.067 73.2555 296.174 73.432 296.275 73.6149C296.174 73.432 296.067 73.2555 295.96 73.0726ZM296.553 74.1319C296.647 74.3148 296.748 74.4976 296.843 74.6742C296.748 74.4913 296.647 74.3085 296.553 74.1319ZM297.101 75.1975C297.19 75.3804 297.284 75.5632 297.366 75.7398C297.278 75.5569 297.19 75.3741 297.101 75.1975ZM297.599 76.2631C297.681 76.446 297.763 76.6288 297.845 76.8117C297.77 76.6288 297.681 76.446 297.599 76.2631ZM298.053 77.3414C298.129 77.5242 298.205 77.7071 298.274 77.8962C298.205 77.7134 298.129 77.5305 298.053 77.3414ZM298.463 78.4259C298.526 78.6087 298.596 78.7916 298.659 78.9808C298.596 78.7979 298.526 78.6087 298.463 78.4259ZM298.829 79.5104C298.886 79.6933 298.949 79.8824 298.999 80.0653C298.943 79.8824 298.886 79.6933 298.829 79.5104ZM299.151 80.6012C299.201 80.7841 299.251 80.9733 299.302 81.1561C299.258 80.9733 299.201 80.7841 299.151 80.6012ZM299.422 81.6921C299.466 81.8812 299.51 82.0641 299.548 82.2532C299.51 82.0641 299.466 81.8812 299.422 81.6921ZM299.649 82.7892C299.687 82.9784 299.718 83.1612 299.75 83.3504C299.718 83.1612 299.68 82.9784 299.649 82.7892ZM299.832 83.8926C299.857 84.0755 299.888 84.2647 299.907 84.4475C299.882 84.2647 299.857 84.0755 299.832 83.8926ZM299.97 84.9898C299.989 85.1726 300.008 85.3618 300.027 85.5446C300.014 85.3618 299.989 85.1726 299.97 84.9898ZM300.065 86.0869C300.077 86.2761 300.09 86.4589 300.096 86.6481C300.09 86.4589 300.077 86.2761 300.065 86.0869ZM289.119 64.4406C288.942 64.264 288.759 64.0938 288.576 63.9235C288.759 64.0938 288.942 64.2703 289.119 64.4406ZM278.299 56.1679C277.832 55.8842 277.353 55.6004 276.867 55.323C277.353 55.6004 277.826 55.8842 278.299 56.1679ZM288.097 63.4695C287.914 63.2993 287.719 63.129 287.53 62.9588C287.719 63.129 287.908 63.2993 288.097 63.4695ZM287.032 62.5111C286.836 62.3409 286.634 62.1706 286.433 62.0004C286.634 62.1706 286.836 62.3409 287.032 62.5111ZM285.922 61.5653C285.714 61.3951 285.499 61.2185 285.285 61.0483C285.499 61.2185 285.714 61.3888 285.922 61.5653ZM284.768 60.6321C284.554 60.4619 284.327 60.2979 284.106 60.1277C284.327 60.2979 284.547 60.4619 284.768 60.6321ZM283.564 59.7115C283.337 59.5413 283.097 59.371 282.864 59.2071C283.097 59.3774 283.33 59.5413 283.564 59.7115ZM282.315 58.8036C282.076 58.6333 281.823 58.4631 281.578 58.2928C281.823 58.4631 282.076 58.6333 282.315 58.8036ZM281.023 57.9082C280.758 57.7316 280.487 57.5551 280.222 57.3849C280.493 57.5614 280.758 57.7316 281.023 57.9082ZM279.686 57.0318C279.352 56.8174 279.011 56.6093 278.671 56.4012C279.011 56.6093 279.352 56.8237 279.686 57.0318ZM12.8993 63.4128C12.7354 63.5641 12.5777 63.7217 12.4138 63.8794C12.5777 63.7217 12.7354 63.5704 12.8993 63.4128ZM11.8904 64.3775C11.8904 64.3775 11.8337 64.4343 11.8022 64.4658C11.7959 64.4721 11.7832 64.4847 11.7769 64.491C11.8148 64.4532 11.8526 64.4153 11.8904 64.3775V64.3775ZM11.5121 64.7621L11.4238 64.8504C11.4617 64.8126 11.4932 64.7811 11.531 64.7432L11.5121 64.7621ZM10.932 65.3548C10.8374 65.4557 10.7429 65.5566 10.6483 65.6638L10.6294 65.6827C10.7303 65.5755 10.8311 65.4683 10.932 65.3548ZM0.301163 92.5625C0.33269 92.7454 0.370521 92.9282 0.408354 93.1111C0.370521 92.9282 0.338996 92.7454 0.301163 92.5625ZM0.534469 93.6723C0.578606 93.8551 0.616437 94.038 0.660574 94.2208C0.616437 94.038 0.572301 93.8551 0.534469 93.6723ZM0.811897 94.782C0.86234 94.9649 0.906481 95.1414 0.963229 95.3243C0.912786 95.1414 0.86234 94.9649 0.811897 94.782ZM-0.121295 89.2144C-0.108685 89.3972 -0.102381 89.5801 -0.0834646 89.7629C-0.0960754 89.5801 -0.108685 89.3972 -0.121295 89.2144ZM-0.171739 88.092C-0.171739 88.2749 -0.165431 88.4577 -0.159126 88.6469C-0.165431 88.464 -0.171739 88.2812 -0.171739 88.092ZM-0.026709 90.3304C-0.00779286 90.5133 0.011121 90.6961 0.0300371 90.879C0.0300371 90.8475 0.0174236 90.8096 0.0174236 90.7781C-0.00149249 90.6268 -0.0140982 90.4818 -0.026709 90.3304ZM0.112 91.4465C0.137222 91.6293 0.162446 91.8122 0.193973 91.995C0.193973 91.9635 0.181363 91.932 0.175058 91.8942C0.149836 91.7428 0.130916 91.5915 0.112 91.4465ZM1.13348 95.8918C1.19023 96.0746 1.24698 96.2512 1.30372 96.434C1.29111 96.4088 1.28481 96.3773 1.2722 96.3521C1.22175 96.2007 1.17761 96.0494 1.12717 95.8918H1.13348ZM10.5285 110.741C10.6861 110.899 10.8374 111.056 11.0014 111.214C10.8374 111.056 10.6861 110.899 10.5285 110.741ZM1.50549 96.9952C1.56855 97.1718 1.6316 97.3546 1.70096 97.5312C1.6316 97.3546 1.56855 97.1718 1.50549 96.9952ZM1.92165 98.0923C1.99101 98.2689 2.06036 98.4518 2.13603 98.6283C2.06036 98.4518 1.99101 98.2752 1.92165 98.0923ZM2.38194 99.1832C2.46391 99.3597 2.53958 99.5363 2.62155 99.7128C2.53958 99.5363 2.46391 99.3597 2.38194 99.1832ZM2.89267 100.274C2.98095 100.451 3.06292 100.627 3.15119 100.797C3.06292 100.621 2.98095 100.444 2.89267 100.274ZM3.44755 101.352C3.54213 101.529 3.6304 101.705 3.73129 101.876C3.63671 101.699 3.54213 101.522 3.44755 101.352ZM4.04656 102.424C4.14744 102.601 4.24833 102.771 4.34921 102.947C4.24202 102.771 4.14744 102.601 4.04656 102.424ZM4.69601 103.496C4.8032 103.666 4.91039 103.843 5.02389 104.013C4.91039 103.843 4.8032 103.666 4.69601 103.496ZM5.3896 104.555C5.5031 104.726 5.6166 104.896 5.7364 105.066C5.6166 104.896 5.5031 104.726 5.3896 104.555ZM6.12733 105.608C6.24713 105.779 6.36694 105.949 6.49304 106.113C6.36694 105.943 6.24713 105.779 6.12733 105.608ZM6.9092 106.649C7.04161 106.819 7.16772 106.983 7.30013 107.153C7.16772 106.983 7.03531 106.819 6.9092 106.649ZM7.7415 107.683C7.88022 107.853 8.01894 108.017 8.15766 108.181C8.01264 108.017 7.88022 107.847 7.7415 107.683ZM8.62425 108.711C8.76928 108.875 8.9143 109.038 9.05932 109.202C8.908 109.038 8.76928 108.875 8.62425 108.711ZM9.55745 109.732C9.70878 109.89 9.8538 110.054 10.0051 110.211C9.8538 110.054 9.70248 109.89 9.55745 109.732ZM12.0355 112.197C11.8652 112.04 11.7013 111.882 11.5373 111.725C11.7013 111.882 11.8652 112.04 12.0355 112.197ZM12.6156 112.721C12.7858 112.872 12.9497 113.023 13.12 113.175C12.9497 113.023 12.7858 112.872 12.6156 112.721ZM13.7316 113.698C13.9019 113.843 14.0721 113.995 14.2487 114.14C14.0721 113.995 13.9019 113.843 13.7316 113.698ZM14.8729 114.644C15.0557 114.795 15.2386 114.94 15.4278 115.092C15.2386 114.947 15.062 114.795 14.8729 114.644ZM16.0898 115.596C16.279 115.741 16.4618 115.88 16.651 116.025C16.4618 115.88 16.279 115.741 16.0898 115.596ZM17.3761 116.554C17.5527 116.687 17.7292 116.813 17.9121 116.945C17.7292 116.819 17.5527 116.687 17.3761 116.554ZM18.6813 117.475C18.8642 117.601 19.0407 117.727 19.2236 117.853C19.0407 117.727 18.8579 117.601 18.6813 117.475ZM20.0244 118.37C20.2135 118.497 20.3964 118.616 20.5919 118.742C20.4027 118.623 20.2135 118.497 20.0244 118.37ZM21.5061 119.316C21.6701 119.417 21.8277 119.518 21.9916 119.619C21.8277 119.518 21.6701 119.417 21.5061 119.316ZM279.327 119.758C278.936 119.997 278.538 120.237 278.128 120.476C278.538 120.237 278.936 120.004 279.327 119.758Z" stroke="#007FFF" stroke-width="1.2" mask="url(#path-1-outside-1_202_4470)"/>
</g>
<defs>
<clipPath id="clip0_202_4470">
<rect width="301" height="176" fill="white"/>
</clipPath>
</defs>
</svg>
